<svg width="44" height="44" viewBox="0 0 44 44" fill="none" xmlns="http://www.w3.org/2000/svg">
<g id="mdi:account-cog-outline">
<path id="Vector" d="M18.3327 7.33301C16.3878 7.33301 14.5225 8.10562 13.1472 9.48089C11.772 10.8562 10.9993 12.7214 10.9993 14.6663C10.9993 16.6113 11.772 18.4765 13.1472 19.8518C14.5225 21.2271 16.3878 21.9997 18.3327 21.9997C20.2776 21.9997 22.1429 21.2271 23.5181 19.8518C24.8934 18.4765 25.666 16.6113 25.666 14.6663C25.666 12.7214 24.8934 10.8562 23.5181 9.48089C22.1429 8.10562 20.2776 7.33301 18.3327 7.33301ZM18.3327 10.9997C19.3051 10.9997 20.2378 11.386 20.9254 12.0736C21.613 12.7612 21.9993 13.6939 21.9993 14.6663C21.9993 15.6388 21.613 16.5714 20.9254 17.2591C20.2378 17.9467 19.3051 18.333 18.3327 18.333C17.3602 18.333 16.4276 17.9467 15.74 17.2591C15.0523 16.5714 14.666 15.6388 14.666 14.6663C14.666 13.6939 15.0523 12.7612 15.74 12.0736C16.4276 11.386 17.3602 10.9997 18.3327 10.9997ZM31.166 21.9997C30.8727 21.9997 30.726 22.1463 30.726 22.4397L30.2493 24.7497C29.846 25.0797 29.2593 25.373 28.8193 25.6663L26.4727 24.7497C26.326 24.7497 26.0327 24.7497 25.886 24.933L24.126 28.1597C23.9793 28.3063 23.9793 28.5997 24.2727 28.7463L26.1793 30.2497V32.083L24.2727 33.5863C24.126 33.733 23.9793 34.0263 24.126 34.173L25.886 37.3997C26.0327 37.583 26.326 37.583 26.4727 37.583L28.8193 36.6663C29.2593 36.9597 29.846 37.253 30.2493 37.583L30.726 39.893C30.726 40.1863 30.8727 40.333 31.166 40.333H34.8327C34.9793 40.333 35.2727 40.1863 35.2727 39.893L35.566 37.583C36.1527 37.253 36.7393 36.9597 37.1794 36.6663L39.416 37.583C39.6727 37.583 39.966 37.583 39.966 37.3997L41.8727 34.173C42.0194 34.0263 41.8727 33.733 41.726 33.5863L39.8193 32.083V30.2497L41.726 28.7463C41.8727 28.5997 42.0194 28.3063 41.8727 28.1597L39.966 24.933C39.966 24.7497 39.6727 24.7497 39.416 24.7497L37.1794 25.6663C36.7393 25.373 36.1527 25.0797 35.566 24.7497L35.2727 22.4397C35.2727 22.1463 34.9793 21.9997 34.8327 21.9997H31.166ZM18.3327 23.833C13.4377 23.833 3.66602 26.2713 3.66602 31.1663V36.6663H21.3944C20.881 35.5847 20.5143 34.4113 20.331 33.183H7.14935V31.1663C7.14935 29.993 12.8877 27.3163 18.3327 27.3163C19.121 27.3163 19.9277 27.3897 20.716 27.4997C21.0827 26.3263 21.5777 25.2263 22.2193 24.218C20.7893 23.9797 19.4327 23.833 18.3327 23.833ZM33.0727 28.4163C34.5394 28.4163 35.7494 29.6263 35.7494 31.2397C35.7494 32.7063 34.5394 33.9163 33.0727 33.9163C31.4594 33.9163 30.2493 32.7063 30.2493 31.2397C30.2493 29.6263 31.4594 28.4163 33.0727 28.4163Z" fill="#323232"/>
</g>
</svg>
