<svg width="44" height="44" viewBox="0 0 44 44" fill="none" xmlns="http://www.w3.org/2000/svg">
<g id="mdi:address-marker-outline">
<path id="Vector" d="M21.9993 11.917C23.2149 11.917 24.3807 12.3999 25.2403 13.2594C26.0998 14.119 26.5827 15.2847 26.5827 16.5003C26.5827 17.1022 26.4641 17.6982 26.2338 18.2543C26.0035 18.8104 25.6659 19.3156 25.2403 19.7412C24.8147 20.1668 24.3094 20.5044 23.7533 20.7348C23.1972 20.9651 22.6012 21.0837 21.9993 21.0837C20.7838 21.0837 19.618 20.6008 18.7584 19.7412C17.8989 18.8817 17.416 17.7159 17.416 16.5003C17.416 15.2847 17.8989 14.119 18.7584 13.2594C19.618 12.3999 20.7838 11.917 21.9993 11.917ZM21.9993 3.66699C25.403 3.66699 28.6672 5.01907 31.0739 7.42579C33.4806 9.83251 34.8327 13.0967 34.8327 16.5003C34.8327 26.1253 21.9993 40.3337 21.9993 40.3337C21.9993 40.3337 9.16602 26.1253 9.16602 16.5003C9.16602 13.0967 10.5181 9.83251 12.9248 7.42579C15.3315 5.01907 18.5957 3.66699 21.9993 3.66699ZM21.9993 7.33366C19.5682 7.33366 17.2366 8.29943 15.5175 10.0185C13.7985 11.7376 12.8327 14.0692 12.8327 16.5003C12.8327 18.3337 12.8327 22.0003 21.9993 34.302C31.166 22.0003 31.166 18.3337 31.166 16.5003C31.166 14.0692 30.2002 11.7376 28.4812 10.0185C26.7621 8.29943 24.4305 7.33366 21.9993 7.33366Z" fill="#323232"/>
</g>
</svg>
