<svg width="15px" height="15px" viewBox="0 0 24 24" fill="none" xmlns="http://www.w3.org/2000/svg" fit="" preserveAspectRatio="xMidYMid meet" focusable="false">
    <path d="M15.5 15.4996C15.2 15.4996 15 15.3996 14.8 15.1996L11.8 12.1996C11.6 11.9996 11.5 11.7996 11.5 11.4996V6.59961C11.5 5.99961 11.9 5.59961 12.5 5.59961C13.1 5.59961 13.5 5.99961 13.5 6.59961V10.9996L16.2 13.6996C16.6 14.0996 16.6 14.6996 16.2 15.0996C16 15.3996 15.8 15.4996 15.5 15.4996Z" fill="#454754"></path>
    <path d="M21.6 8.70038C20 3.70038 14.7 0.900385 9.7 2.50038C4.7 4.10038 1.9 9.40038 3.5 14.4004C3.9 15.8004 4.7 17.0004 5.7 18.1004H4C3.4 18.1004 3 18.5004 3 19.1004C3 19.7004 3.4 20.1004 4 20.1004H8C8.6 20.1004 9 19.7004 9 19.1004V15.1004C9 14.5004 8.6 14.1004 8 14.1004C7.4 14.1004 7 14.5004 7 15.1004V16.7004C6.2 15.9004 5.7 14.9004 5.3 13.9004C4.1 10.0004 6.3 5.70038 10.2 4.50038C14.1 3.30038 18.4 5.50038 19.6 9.40038C20.8 13.3004 18.6 17.6004 14.7 18.8004C13.9 19.0004 13.1 19.2004 12.3 19.1004C11.7 19.1004 11.3 19.5004 11.3 20.1004C11.3 20.7004 11.7 21.1004 12.3 21.1004C12.4 21.1004 12.4 21.1004 12.5 21.1004C13.5 21.1004 14.4 21.0004 15.3 20.7004C20.3 19.0004 23.1 13.7004 21.6 8.70038Z" fill="#454754"></path>
</svg>