<svg width="181" height="52" viewBox="0 0 181 52" fill="none" xmlns="http://www.w3.org/2000/svg">
<path d="M179.249 46.0031C179.249 48.7742 176.955 51.0189 174.116 51.0189H6.14152C3.30465 51.0189 1.00195 48.7742 1.00195 46.0031V6.00351C1.00195 3.23368 3.30465 0.98114 6.14152 0.98114H174.115C176.955 0.98114 179.248 3.23368 179.248 6.00351L179.249 46.0031Z" fill="white"/>
<path d="M173.574 1.04163C176.665 1.04163 179.18 3.49051 179.18 6.5V45.5C179.18 48.5095 176.665 50.9584 173.574 50.9584H6.67593C3.58498 50.9584 1.06982 48.5095 1.06982 45.5V6.5C1.06982 3.49051 3.58498 1.04163 6.67593 1.04163H173.574ZM173.574 3.8147e-06H6.67593C3.00584 3.8147e-06 0 2.92663 0 6.5V45.5C0 49.0734 3.00584 52 6.67593 52H173.574C177.244 52 180.25 49.0734 180.25 45.5V6.5C180.25 2.92663 177.244 3.8147e-06 173.574 3.8147e-06Z" fill="white"/>
<path d="M40.227 25.7192C40.1883 21.5293 43.7506 19.4909 43.9134 19.396C41.896 16.5321 38.769 16.1408 37.6701 16.1096C35.0438 15.8405 32.4963 17.6397 31.1584 17.6397C29.7938 17.6397 27.7337 16.1356 25.5132 16.1798C22.6559 16.2227 19.9829 17.8334 18.5169 20.3346C15.4913 25.4345 17.7478 32.929 20.6465 37.0513C22.0965 39.0702 23.7909 41.3244 26.0086 41.2451C28.1783 41.158 28.9887 39.8983 31.607 39.8983C34.2013 39.8983 34.9624 41.2451 37.2242 41.1944C39.5527 41.158 41.0188 39.1664 42.418 37.1293C44.0937 34.8153 44.7666 32.5364 44.7933 32.4194C44.7386 32.4012 40.2711 30.7411 40.227 25.7192Z" fill="#323232"/>
<path d="M35.9544 13.3978C37.1214 11.9769 37.9198 10.0438 37.6982 8.08209C36.0091 8.15489 33.8969 9.21959 32.6805 10.6093C31.6044 11.8339 30.643 13.8411 30.8914 15.7287C32.7887 15.8665 34.7367 14.7966 35.9544 13.3978Z" fill="#323232"/>
<path d="M65.4917 13.0117C65.4917 14.5418 65.0204 15.6936 64.0791 16.4671C63.2072 17.1808 61.9681 17.5383 60.3632 17.5383C59.5675 17.5383 58.8865 17.5045 58.3164 17.4369V9.07661C59.0601 8.95961 59.8612 8.89981 60.7264 8.89981C62.2552 8.89981 63.4075 9.22351 64.1846 9.87091C65.0551 10.6028 65.4917 11.6493 65.4917 13.0117ZM64.0163 13.0494C64.0163 12.0575 63.7466 11.297 63.2072 10.7666C62.6678 10.2375 61.88 9.97231 60.8426 9.97231C60.402 9.97231 60.0268 10.0009 59.7157 10.0607V16.4164C59.8879 16.4424 60.203 16.4541 60.661 16.4541C61.7318 16.4541 62.5583 16.1642 63.1404 15.5844C63.7226 15.0046 64.0163 14.1596 64.0163 13.0494Z" fill="#323232"/>
<path d="M73.315 14.3481C73.315 15.2906 73.0386 16.0628 72.4858 16.6686C71.9063 17.2913 71.1386 17.602 70.1799 17.602C69.256 17.602 68.5203 17.3043 67.9715 16.7063C67.4241 16.1096 67.1504 15.3569 67.1504 14.4495C67.1504 13.5005 67.4321 12.7218 67.9982 12.1173C68.5644 11.5128 69.3254 11.2099 70.2841 11.2099C71.208 11.2099 71.9504 11.5076 72.5125 12.1043C73.0466 12.6841 73.315 13.4329 73.315 14.3481ZM71.8636 14.3923C71.8636 13.8268 71.7381 13.3419 71.4884 12.9376C71.1947 12.4488 70.7768 12.2044 70.2333 12.2044C69.6712 12.2044 69.244 12.4488 68.9502 12.9376C68.6992 13.3419 68.575 13.8346 68.575 14.417C68.575 14.9825 68.7005 15.4674 68.9502 15.8717C69.2533 16.3605 69.6752 16.6049 70.22 16.6049C70.7541 16.6049 71.1733 16.3566 71.4751 15.8587C71.7341 15.4466 71.8636 14.9578 71.8636 14.3923Z" fill="#323232"/>
<path d="M83.8029 11.3347L81.8335 17.4629H80.5517L79.7359 14.8018C79.529 14.1375 79.3607 13.4771 79.2299 12.8219H79.2045C79.083 13.4953 78.9148 14.1544 78.6985 14.8018L77.832 17.4629H76.5355L74.6836 11.3347H76.1216L76.8332 14.248C77.0055 14.937 77.147 15.5935 77.2605 16.2149H77.2859C77.39 15.7027 77.5623 15.0501 77.8053 14.261L78.6985 11.336H79.8387L80.6946 14.1986C80.9016 14.8967 81.0698 15.5688 81.1993 16.2162H81.238C81.3328 15.5857 81.4757 14.9136 81.6653 14.1986L82.429 11.336H83.8029V11.3347Z" fill="#323232"/>
<path d="M91.058 17.4629H89.6587V13.9529C89.6587 12.8713 89.2368 12.3305 88.3903 12.3305C87.975 12.3305 87.6399 12.4787 87.3796 12.7764C87.1219 13.0741 86.991 13.4251 86.991 13.8268V17.4616H85.5917V13.0858C85.5917 12.5476 85.5744 11.9639 85.541 11.3321H86.7707L86.8361 12.2902H86.8749C87.0378 11.9925 87.2808 11.7468 87.5999 11.5505C87.9791 11.3217 88.4036 11.206 88.8683 11.206C89.4558 11.206 89.9444 11.3906 90.333 11.7611C90.8163 12.2148 91.058 12.8921 91.058 13.7917V17.4629Z" fill="#323232"/>
<path d="M94.9175 17.4629H93.5195V8.5228H94.9175V17.4629Z" fill="#323232"/>
<path d="M103.155 14.3481C103.155 15.2906 102.878 16.0628 102.326 16.6686C101.746 17.2913 100.977 17.602 100.02 17.602C99.0945 17.602 98.3588 17.3043 97.8114 16.7063C97.2639 16.1096 96.9902 15.3569 96.9902 14.4495C96.9902 13.5005 97.272 12.7218 97.8381 12.1173C98.4042 11.5128 99.1653 11.2099 100.123 11.2099C101.048 11.2099 101.789 11.5076 102.352 12.1043C102.886 12.6841 103.155 13.4329 103.155 14.3481ZM101.702 14.3923C101.702 13.8268 101.577 13.3419 101.327 12.9376C101.035 12.4488 100.615 12.2044 100.073 12.2044C99.5097 12.2044 99.0825 12.4488 98.7901 12.9376C98.539 13.3419 98.4149 13.8346 98.4149 14.417C98.4149 14.9825 98.5404 15.4674 98.7901 15.8717C99.0932 16.3605 99.5151 16.6049 100.06 16.6049C100.594 16.6049 101.012 16.3566 101.314 15.8587C101.574 15.4466 101.702 14.9578 101.702 14.3923Z" fill="#323232"/>
<path d="M109.927 17.4629H108.671L108.566 16.757H108.528C108.098 17.3199 107.485 17.602 106.689 17.602C106.095 17.602 105.614 17.4161 105.252 17.0469C104.924 16.7115 104.76 16.2942 104.76 15.7989C104.76 15.0501 105.08 14.4794 105.725 14.0842C106.369 13.689 107.274 13.4953 108.44 13.5044V13.39C108.44 12.5827 108.004 12.1797 107.132 12.1797C106.512 12.1797 105.964 12.3318 105.491 12.6334L105.207 11.739C105.792 11.3867 106.514 11.2099 107.366 11.2099C109.011 11.2099 109.836 12.0549 109.836 13.7449V16.0017C109.836 16.614 109.867 17.1015 109.927 17.4629ZM108.474 15.3569V14.4118C106.931 14.3858 106.159 14.7979 106.159 15.6468C106.159 15.9666 106.247 16.2058 106.427 16.3657C106.608 16.5256 106.837 16.6049 107.111 16.6049C107.418 16.6049 107.705 16.51 107.967 16.3215C108.23 16.1317 108.391 15.8912 108.452 15.5961C108.466 15.5298 108.474 15.4492 108.474 15.3569Z" fill="#323232"/>
<path d="M117.877 17.4629H116.636L116.57 16.4788H116.532C116.135 17.2276 115.459 17.602 114.51 17.602C113.752 17.602 113.12 17.3121 112.62 16.7323C112.119 16.1525 111.869 15.3998 111.869 14.4755C111.869 13.4836 112.14 12.6802 112.685 12.0666C113.212 11.4946 113.859 11.2086 114.628 11.2086C115.473 11.2086 116.064 11.4855 116.401 12.0406H116.427V8.5228H117.828V15.8119C117.828 16.4086 117.844 16.9585 117.877 17.4629ZM116.427 14.8785V13.8567C116.427 13.6799 116.414 13.5369 116.389 13.4277C116.31 13.1001 116.14 12.8245 115.883 12.6022C115.622 12.3799 115.309 12.2681 114.947 12.2681C114.425 12.2681 114.016 12.4696 113.716 12.8739C113.418 13.2782 113.267 13.7943 113.267 14.4248C113.267 15.0306 113.41 15.522 113.697 15.9003C114 16.3033 114.409 16.5048 114.92 16.5048C115.379 16.5048 115.747 16.3371 116.026 16.0004C116.295 15.6897 116.427 15.3153 116.427 14.8785Z" fill="#323232"/>
<path d="M129.844 14.3481C129.844 15.2906 129.568 16.0628 129.015 16.6686C128.436 17.2913 127.669 17.602 126.709 17.602C125.787 17.602 125.051 17.3043 124.501 16.7063C123.953 16.1096 123.68 15.3569 123.68 14.4495C123.68 13.5005 123.961 12.7218 124.528 12.1173C125.094 11.5128 125.855 11.2099 126.815 11.2099C127.737 11.2099 128.481 11.5076 129.042 12.1043C129.576 12.6841 129.844 13.4329 129.844 14.3481ZM128.394 14.3923C128.394 13.8268 128.269 13.3419 128.019 12.9376C127.724 12.4488 127.307 12.2044 126.763 12.2044C126.202 12.2044 125.775 12.4488 125.48 12.9376C125.229 13.3419 125.104 13.8346 125.104 14.417C125.104 14.9825 125.23 15.4674 125.48 15.8717C125.783 16.3605 126.205 16.6049 126.749 16.6049C127.283 16.6049 127.704 16.3566 128.006 15.8587C128.263 15.4466 128.394 14.9578 128.394 14.3923Z" fill="#323232"/>
<path d="M137.369 17.4629H135.971V13.9529C135.971 12.8713 135.549 12.3305 134.701 12.3305C134.286 12.3305 133.951 12.4787 133.692 12.7764C133.433 13.0741 133.304 13.4251 133.304 13.8268V17.4616H131.903V13.0858C131.903 12.5476 131.887 11.9639 131.854 11.3321H133.082L133.147 12.2902H133.186C133.35 11.9925 133.593 11.7468 133.911 11.5505C134.292 11.3217 134.715 11.206 135.181 11.206C135.767 11.206 136.256 11.3906 136.644 11.7611C137.129 12.2148 137.369 12.8921 137.369 13.7917V17.4629Z" fill="#323232"/>
<path d="M146.786 12.3552H145.246V15.3322C145.246 16.0888 145.519 16.4671 146.061 16.4671C146.312 16.4671 146.521 16.4463 146.685 16.4034L146.721 17.4369C146.445 17.5383 146.081 17.589 145.634 17.589C145.081 17.589 144.651 17.4252 144.34 17.0976C144.028 16.77 143.873 16.2188 143.873 15.4453V12.3552H142.953V11.3347H143.873V10.2115L145.244 9.8085V11.3334H146.785V12.3552H146.786Z" fill="#323232"/>
<path d="M154.193 17.4629H152.792V13.9789C152.792 12.8804 152.37 12.3305 151.525 12.3305C150.876 12.3305 150.433 12.649 150.19 13.286C150.149 13.4199 150.125 13.5837 150.125 13.7761V17.4616H148.727V8.5228H150.125V12.2161H150.151C150.592 11.544 151.223 11.2086 152.042 11.2086C152.621 11.2086 153.101 11.3932 153.481 11.7637C153.955 12.2252 154.193 12.9116 154.193 13.819V17.4629Z" fill="#323232"/>
<path d="M161.834 14.1089C161.834 14.3533 161.815 14.5587 161.782 14.7264H157.585C157.604 15.3322 157.804 15.7937 158.193 16.1135C158.548 16.3995 159.006 16.5425 159.567 16.5425C160.188 16.5425 160.754 16.4463 161.264 16.2526L161.483 17.199C160.886 17.4512 160.184 17.5773 159.371 17.5773C158.396 17.5773 157.628 17.2978 157.073 16.7388C156.515 16.1798 156.238 15.4297 156.238 14.4885C156.238 13.5642 156.496 12.7946 157.015 12.181C157.557 11.5258 158.29 11.1982 159.216 11.1982C160.121 11.1982 160.809 11.5258 161.273 12.181C161.648 12.701 161.834 13.3445 161.834 14.1089ZM160.499 13.7566C160.51 13.3523 160.417 13.0039 160.228 12.7101C159.985 12.3318 159.615 12.142 159.114 12.142C158.658 12.142 158.285 12.3266 158.001 12.6971C157.768 12.9922 157.631 13.3445 157.585 13.7566H160.499Z" fill="#323232"/>
<path d="M71.6258 40.9552H68.5936L66.9326 35.8735H61.1593L59.5771 40.9552H56.625L62.3449 23.6548H65.8778L71.6258 40.9552ZM66.4319 33.7415L64.9299 29.224C64.771 28.7625 64.4732 27.6757 64.0339 25.9649H63.9805C63.8056 26.7007 63.5239 27.7875 63.1367 29.224L61.6613 33.7415H66.4319Z" fill="#323232"/>
<path d="M86.3365 34.5644C86.3365 36.686 85.7477 38.363 84.5701 39.5941C83.5153 40.69 82.2054 41.2373 80.6419 41.2373C78.9543 41.2373 77.7419 40.6471 77.0036 39.4667H76.9501V46.0382H74.1035V32.5871C74.1035 31.2533 74.0675 29.8844 73.998 28.4804H76.5015L76.6604 30.4577H76.7138C77.6631 28.9679 79.1038 28.2243 81.0372 28.2243C82.5486 28.2243 83.8103 28.8054 84.8197 29.9689C85.8318 31.1337 86.3365 32.6651 86.3365 34.5644ZM83.4365 34.6658C83.4365 33.4516 83.1561 32.4506 82.5926 31.6628C81.9771 30.8412 81.1506 30.4304 80.1145 30.4304C79.4122 30.4304 78.774 30.6592 78.2039 31.1103C77.6324 31.5653 77.2586 32.1594 77.0837 32.8952C76.9955 33.2384 76.9515 33.5192 76.9515 33.7402V35.8202C76.9515 36.7276 77.2372 37.4933 77.8087 38.1186C78.3801 38.7439 79.1225 39.0559 80.0358 39.0559C81.1079 39.0559 81.9424 38.6529 82.5392 37.8495C83.1374 37.0448 83.4365 35.984 83.4365 34.6658Z" fill="#323232"/>
<path d="M101.071 34.5644C101.071 36.686 100.483 38.363 99.3037 39.5941C98.2502 40.69 96.9404 41.2373 95.3769 41.2373C93.6892 41.2373 92.4769 40.6471 91.7399 39.4667H91.6865V46.0382H88.8399V32.5871C88.8399 31.2533 88.8038 29.8844 88.7344 28.4804H91.2378L91.3967 30.4577H91.4501C92.3981 28.9679 93.8388 28.2243 95.7735 28.2243C97.2836 28.2243 98.5453 28.8054 99.5574 29.9689C100.565 31.1337 101.071 32.6651 101.071 34.5644ZM98.1715 34.6658C98.1715 33.4516 97.8897 32.4506 97.3263 31.6628C96.7108 30.8412 95.887 30.4304 94.8495 30.4304C94.1459 30.4304 93.509 30.6592 92.9375 31.1103C92.3661 31.5653 91.9936 32.1594 91.8187 32.8952C91.7319 33.2384 91.6865 33.5192 91.6865 33.7402V35.8202C91.6865 36.7276 91.9722 37.4933 92.541 38.1186C93.1124 38.7426 93.8548 39.0559 94.7708 39.0559C95.8429 39.0559 96.6774 38.6529 97.2742 37.8495C97.8724 37.0448 98.1715 35.984 98.1715 34.6658Z" fill="#323232"/>
<path d="M117.549 36.1036C117.549 37.5752 117.024 38.7725 115.971 39.6968C114.813 40.7069 113.201 41.2113 111.13 41.2113C109.218 41.2113 107.686 40.8525 106.525 40.1336L107.185 37.8235C108.435 38.5593 109.806 38.9285 111.3 38.9285C112.372 38.9285 113.207 38.6919 113.806 38.2213C114.403 37.7507 114.701 37.1189 114.701 36.3311C114.701 35.6291 114.455 35.0376 113.962 34.5579C113.472 34.0782 112.654 33.6323 111.511 33.2202C108.4 32.0905 106.846 30.4356 106.846 28.2594C106.846 26.8372 107.391 25.6711 108.481 24.7637C109.568 23.855 111.018 23.4013 112.831 23.4013C114.448 23.4013 115.792 23.6756 116.864 24.2229L116.152 26.4823C115.151 25.9519 114.018 25.6867 112.751 25.6867C111.75 25.6867 110.968 25.9272 110.407 26.4056C109.933 26.8333 109.695 27.3546 109.695 27.9721C109.695 28.6559 109.966 29.2214 110.511 29.666C110.985 30.0768 111.846 30.5214 113.096 31.0011C114.625 31.6004 115.748 32.3011 116.47 33.1045C117.19 33.9053 117.549 34.9076 117.549 36.1036Z" fill="#323232"/>
<path d="M126.959 30.5604H123.821V36.6171C123.821 38.1576 124.374 38.9272 125.482 38.9272C125.991 38.9272 126.413 38.8843 126.747 38.7985L126.826 40.9032C126.265 41.1073 125.526 41.21 124.612 41.21C123.488 41.21 122.609 40.8759 121.975 40.209C121.343 39.5408 121.026 38.4202 121.026 36.8459V30.5578H119.156V28.4778H121.026V26.1937L123.821 25.3721V28.4778H126.959V30.5604Z" fill="#323232"/>
<path d="M141.118 34.6151C141.118 36.5326 140.554 38.1069 139.43 39.338C138.251 40.6055 136.686 41.2373 134.736 41.2373C132.856 41.2373 131.359 40.6302 130.243 39.416C129.126 38.2018 128.568 36.6691 128.568 34.8218C128.568 32.8887 129.142 31.3053 130.295 30.0742C131.444 28.8418 132.996 28.2256 134.947 28.2256C136.826 28.2256 138.339 28.8327 139.481 30.0482C140.573 31.2273 141.118 32.7496 141.118 34.6151ZM138.164 34.7048C138.164 33.5543 137.912 32.5676 137.401 31.7447C136.804 30.7489 135.951 30.2523 134.845 30.2523C133.701 30.2523 132.832 30.7502 132.235 31.7447C131.723 32.5689 131.471 33.5712 131.471 34.7568C131.471 35.9073 131.723 36.894 132.235 37.7156C132.85 38.7114 133.71 39.208 134.82 39.208C135.907 39.208 136.76 38.701 137.375 37.6896C137.9 36.8511 138.164 35.854 138.164 34.7048Z" fill="#323232"/>
<path d="M150.37 30.9179C150.089 30.8672 149.788 30.8412 149.473 30.8412C148.472 30.8412 147.697 31.2091 147.153 31.9462C146.679 32.5962 146.441 33.4178 146.441 34.4097V40.9552H143.596L143.622 32.409C143.622 30.9712 143.586 29.6621 143.516 28.4817H145.995L146.099 30.8685H146.178C146.478 30.0482 146.952 29.3878 147.601 28.8925C148.236 28.4466 148.92 28.2243 149.659 28.2243C149.922 28.2243 150.16 28.2425 150.37 28.275V30.9179Z" fill="#323232"/>
<path d="M163.101 34.1276C163.101 34.6242 163.068 35.0428 162.997 35.3847H154.457C154.491 36.6171 154.903 37.5596 155.696 38.2096C156.416 38.7907 157.347 39.0819 158.49 39.0819C159.754 39.0819 160.908 38.8856 161.945 38.4917L162.391 40.4157C161.179 40.9305 159.747 41.1866 158.096 41.1866C156.109 41.1866 154.549 40.6172 153.415 39.4797C152.282 38.3422 151.715 36.8147 151.715 34.8985C151.715 33.0174 152.242 31.4509 153.298 30.2016C154.404 28.8678 155.898 28.2009 157.778 28.2009C159.624 28.2009 161.022 28.8678 161.972 30.2016C162.723 31.2611 163.101 32.5715 163.101 34.1276ZM160.387 33.4087C160.406 32.5871 160.22 31.8773 159.834 31.278C159.341 30.5071 158.584 30.1223 157.566 30.1223C156.635 30.1223 155.878 30.498 155.3 31.252C154.826 31.8513 154.544 32.5702 154.457 33.4074H160.387V33.4087Z" fill="#323232"/>
</svg>
