<svg width="181" height="52" viewBox="0 0 181 52" fill="none" xmlns="http://www.w3.org/2000/svg">
    <path d="M179.498 46.0031C179.498 48.7742 177.204 51.0189 174.365 51.0189H6.39054C3.55367 51.0189 1.25098 48.7742 1.25098 46.0031V6.00351C1.25098 3.23368 3.55367 0.98114 6.39054 0.98114H174.364C177.204 0.98114 179.497 3.23368 179.497 6.00351L179.498 46.0031Z" fill="#323232"/>
    <path d="M173.824 1.04163C176.915 1.04163 179.43 3.49051 179.43 6.5V45.5C179.43 48.5095 176.915 50.9584 173.824 50.9584H6.92593C3.83498 50.9584 1.31982 48.5095 1.31982 45.5V6.5C1.31982 3.49051 3.83498 1.04163 6.92593 1.04163H173.824ZM173.824 3.8147e-06H6.92593C3.25584 3.8147e-06 0.25 2.92663 0.25 6.5V45.5C0.25 49.0734 3.25584 52 6.92593 52H173.824C177.494 52 180.5 49.0734 180.5 45.5V6.5C180.5 2.92663 177.494 3.8147e-06 173.824 3.8147e-06Z" fill="#323232"/>
    <path d="M40.476 25.7192C40.4373 21.5293 43.9996 19.4909 44.1625 19.396C42.145 16.5321 39.018 16.1408 37.9191 16.1096C35.2928 15.8405 32.7453 17.6397 31.4074 17.6397C30.0429 17.6397 27.9827 16.1356 25.7623 16.1798C22.905 16.2227 20.2319 17.8334 18.7659 20.3346C15.7404 25.4345 17.9968 32.929 20.8955 37.0513C22.3455 39.0702 24.0399 41.3244 26.2576 41.2451C28.4273 41.158 29.2378 39.8983 31.8561 39.8983C34.4503 39.8983 35.2114 41.2451 37.4732 41.1944C39.8018 41.158 41.2678 39.1664 42.6671 37.1293C44.3427 34.8153 45.0157 32.5364 45.0424 32.4194C44.9876 32.4012 40.5201 30.7411 40.476 25.7192Z" fill="white"/>
    <path d="M36.2034 13.3978C37.3704 11.9769 38.1688 10.0438 37.9472 8.08209C36.2582 8.15489 34.1459 9.21959 32.9295 10.6093C31.8534 11.8339 30.8921 13.8411 31.1404 15.7287C33.0377 15.8665 34.9857 14.7966 36.2034 13.3978Z" fill="white"/>
    <path d="M65.7407 13.0117C65.7407 14.5418 65.2694 15.6936 64.3281 16.4671C63.4562 17.1808 62.2172 17.5383 60.6123 17.5383C59.8165 17.5383 59.1356 17.5045 58.5654 17.4369V9.07664C59.3091 8.95964 60.1102 8.89984 60.9754 8.89984C62.5042 8.89984 63.6565 9.22354 64.4336 9.87094C65.3041 10.6028 65.7407 11.6493 65.7407 13.0117ZM64.2653 13.0494C64.2653 12.0575 63.9956 11.297 63.4562 10.7666C62.9168 10.2375 62.129 9.97234 61.0916 9.97234C60.651 9.97234 60.2758 10.0009 59.9647 10.0607V16.4164C60.1369 16.4424 60.452 16.4541 60.91 16.4541C61.9808 16.4541 62.8073 16.1642 63.3895 15.5844C63.9716 15.0046 64.2653 14.1596 64.2653 13.0494Z" fill="white"/>
    <path d="M73.564 14.3482C73.564 15.2907 73.2876 16.0629 72.7348 16.6687C72.1554 17.2914 71.3876 17.6021 70.429 17.6021C69.505 17.6021 68.7693 17.3044 68.2206 16.7064C67.6731 16.1097 67.3994 15.357 67.3994 14.4496C67.3994 13.5006 67.6811 12.7219 68.2473 12.1174C68.8134 11.5129 69.5744 11.21 70.5331 11.21C71.4571 11.21 72.1994 11.5077 72.7615 12.1044C73.2956 12.6842 73.564 13.433 73.564 14.3482ZM72.1126 14.3924C72.1126 13.8269 71.9871 13.342 71.7374 12.9377C71.4437 12.4489 71.0258 12.2045 70.4824 12.2045C69.9203 12.2045 69.493 12.4489 69.1992 12.9377C68.9482 13.342 68.8241 13.8347 68.8241 14.4171C68.8241 14.9826 68.9496 15.4675 69.1992 15.8718C69.5023 16.3606 69.9243 16.605 70.469 16.605C71.0031 16.605 71.4223 16.3567 71.7241 15.8588C71.9831 15.4467 72.1126 14.9579 72.1126 14.3924Z" fill="white"/>
    <path d="M84.0529 11.3347L82.0835 17.4629H80.8017L79.9859 14.8018C79.779 14.1375 79.6107 13.4771 79.4799 12.8219H79.4545C79.333 13.4953 79.1648 14.1544 78.9485 14.8018L78.082 17.4629H76.7855L74.9336 11.3347H76.3716L77.0832 14.248C77.2555 14.937 77.397 15.5935 77.5105 16.2149H77.5359C77.64 15.7027 77.8123 15.0501 78.0553 14.261L78.9485 11.336H80.0887L80.9446 14.1986C81.1516 14.8967 81.3198 15.5688 81.4493 16.2162H81.488C81.5828 15.5857 81.7257 14.9136 81.9153 14.1986L82.679 11.336H84.0529V11.3347Z" fill="white"/>
    <path d="M91.307 17.463H89.9077V13.953C89.9077 12.8714 89.4858 12.3306 88.6393 12.3306C88.2241 12.3306 87.8889 12.4788 87.6286 12.7765C87.3709 13.0742 87.24 13.4252 87.24 13.8269V17.4617H85.8408V13.0859C85.8408 12.5477 85.8234 11.964 85.79 11.3322H87.0197L87.0852 12.2903H87.1239C87.2868 11.9926 87.5298 11.7469 87.8489 11.5506C88.2281 11.3218 88.6527 11.2061 89.1173 11.2061C89.7048 11.2061 90.1935 11.3907 90.582 11.7612C91.0653 12.2149 91.307 12.8922 91.307 13.7918V17.463Z" fill="white"/>
    <path d="M95.1655 17.4629H93.7676V8.52283H95.1655V17.4629Z" fill="white"/>
    <path d="M103.404 14.3482C103.404 15.2907 103.127 16.0629 102.575 16.6687C101.995 17.2914 101.226 17.6021 100.269 17.6021C99.3435 17.6021 98.6078 17.3044 98.0604 16.7064C97.513 16.1097 97.2393 15.357 97.2393 14.4496C97.2393 13.5006 97.521 12.7219 98.0871 12.1174C98.6532 11.5129 99.4143 11.21 100.372 11.21C101.297 11.21 102.038 11.5077 102.601 12.1044C103.135 12.6842 103.404 13.433 103.404 14.3482ZM101.951 14.3924C101.951 13.8269 101.826 13.342 101.576 12.9377C101.284 12.4489 100.864 12.2045 100.322 12.2045C99.7588 12.2045 99.3315 12.4489 99.0391 12.9377C98.7881 13.342 98.6639 13.8347 98.6639 14.4171C98.6639 14.9826 98.7894 15.4675 99.0391 15.8718C99.3422 16.3606 99.7641 16.605 100.309 16.605C100.843 16.605 101.261 16.3567 101.563 15.8588C101.823 15.4467 101.951 14.9579 101.951 14.3924Z" fill="white"/>
    <path d="M110.176 17.463H108.92L108.815 16.7571H108.777C108.347 17.32 107.734 17.6021 106.938 17.6021C106.344 17.6021 105.863 17.4162 105.501 17.047C105.173 16.7116 105.009 16.2943 105.009 15.799C105.009 15.0502 105.329 14.4795 105.974 14.0843C106.618 13.6891 107.523 13.4954 108.689 13.5045V13.3901C108.689 12.5828 108.253 12.1798 107.381 12.1798C106.761 12.1798 106.213 12.3319 105.74 12.6335L105.456 11.7391C106.041 11.3868 106.763 11.21 107.615 11.21C109.26 11.21 110.085 12.055 110.085 13.745V16.0018C110.085 16.6141 110.116 17.1016 110.176 17.463ZM108.723 15.357V14.4119C107.18 14.3859 106.408 14.798 106.408 15.6469C106.408 15.9667 106.496 16.2059 106.676 16.3658C106.857 16.5257 107.086 16.605 107.36 16.605C107.667 16.605 107.954 16.5101 108.216 16.3216C108.479 16.1318 108.64 15.8913 108.701 15.5962C108.715 15.5299 108.723 15.4493 108.723 15.357Z" fill="white"/>
    <path d="M118.126 17.4629H116.885L116.819 16.4788H116.781C116.384 17.2276 115.708 17.602 114.759 17.602C114.001 17.602 113.369 17.3121 112.869 16.7323C112.368 16.1525 112.118 15.3998 112.118 14.4755C112.118 13.4836 112.389 12.6802 112.934 12.0666C113.461 11.4946 114.108 11.2086 114.877 11.2086C115.722 11.2086 116.313 11.4855 116.65 12.0406H116.676V8.52283H118.077V15.8119C118.077 16.4086 118.093 16.9585 118.126 17.4629ZM116.676 14.8785V13.8567C116.676 13.6799 116.663 13.5369 116.638 13.4277C116.559 13.1001 116.389 12.8245 116.132 12.6022C115.871 12.3799 115.558 12.2681 115.196 12.2681C114.674 12.2681 114.265 12.4696 113.965 12.8739C113.667 13.2782 113.516 13.7943 113.516 14.4248C113.516 15.0306 113.659 15.522 113.946 15.9003C114.249 16.3033 114.658 16.5048 115.169 16.5048C115.628 16.5048 115.996 16.3371 116.275 16.0004C116.544 15.6897 116.676 15.3153 116.676 14.8785Z" fill="white"/>
    <path d="M130.094 14.3482C130.094 15.2907 129.818 16.0629 129.265 16.6687C128.686 17.2914 127.919 17.6021 126.959 17.6021C126.037 17.6021 125.301 17.3044 124.751 16.7064C124.203 16.1097 123.93 15.357 123.93 14.4496C123.93 13.5006 124.211 12.7219 124.778 12.1174C125.344 11.5129 126.105 11.21 127.065 11.21C127.987 11.21 128.731 11.5077 129.292 12.1044C129.826 12.6842 130.094 13.433 130.094 14.3482ZM128.644 14.3924C128.644 13.8269 128.519 13.342 128.269 12.9377C127.974 12.4489 127.557 12.2045 127.013 12.2045C126.452 12.2045 126.025 12.4489 125.73 12.9377C125.479 13.342 125.354 13.8347 125.354 14.4171C125.354 14.9826 125.48 15.4675 125.73 15.8718C126.033 16.3606 126.455 16.605 126.999 16.605C127.533 16.605 127.954 16.3567 128.256 15.8588C128.513 15.4467 128.644 14.9579 128.644 14.3924Z" fill="white"/>
    <path d="M137.618 17.463H136.22V13.953C136.22 12.8714 135.798 12.3306 134.95 12.3306C134.535 12.3306 134.2 12.4788 133.941 12.7765C133.682 13.0742 133.553 13.4252 133.553 13.8269V17.4617H132.152V13.0859C132.152 12.5477 132.136 11.964 132.103 11.3322H133.331L133.396 12.2903H133.435C133.599 11.9926 133.842 11.7469 134.16 11.5506C134.541 11.3218 134.964 11.2061 135.43 11.2061C136.016 11.2061 136.505 11.3907 136.893 11.7612C137.378 12.2149 137.618 12.8922 137.618 13.7918V17.463Z" fill="white"/>
    <path d="M147.034 12.3552H145.494V15.3322C145.494 16.0888 145.767 16.4671 146.309 16.4671C146.56 16.4671 146.769 16.4463 146.933 16.4034L146.969 17.4369C146.693 17.5383 146.33 17.589 145.882 17.589C145.329 17.589 144.9 17.4252 144.588 17.0976C144.276 16.77 144.121 16.2188 144.121 15.4453V12.3552H143.201V11.3347H144.121V10.2115L145.492 9.80853V11.3334H147.033V12.3552H147.034Z" fill="white"/>
    <path d="M154.443 17.4629H153.042V13.9789C153.042 12.8804 152.62 12.3305 151.775 12.3305C151.126 12.3305 150.683 12.649 150.44 13.286C150.399 13.4199 150.375 13.5837 150.375 13.7761V17.4616H148.977V8.52283H150.375V12.2161H150.401C150.842 11.544 151.473 11.2086 152.292 11.2086C152.871 11.2086 153.351 11.3932 153.731 11.7637C154.205 12.2252 154.443 12.9116 154.443 13.819V17.4629Z" fill="white"/>
    <path d="M162.084 14.1089C162.084 14.3533 162.065 14.5587 162.032 14.7264H157.835C157.854 15.3322 158.054 15.7937 158.443 16.1135C158.798 16.3995 159.256 16.5425 159.817 16.5425C160.438 16.5425 161.004 16.4463 161.514 16.2526L161.733 17.199C161.136 17.4512 160.434 17.5773 159.621 17.5773C158.646 17.5773 157.878 17.2978 157.323 16.7388C156.765 16.1798 156.488 15.4297 156.488 14.4885C156.488 13.5642 156.746 12.7946 157.265 12.181C157.807 11.5258 158.54 11.1982 159.466 11.1982C160.371 11.1982 161.059 11.5258 161.523 12.181C161.898 12.701 162.084 13.3445 162.084 14.1089ZM160.749 13.7566C160.76 13.3523 160.667 13.0039 160.478 12.7101C160.235 12.3318 159.865 12.142 159.364 12.142C158.908 12.142 158.535 12.3266 158.251 12.6971C158.018 12.9922 157.881 13.3445 157.835 13.7566H160.749Z" fill="white"/>
    <path d="M71.8758 40.9552H68.8436L67.1826 35.8735H61.4093L59.8271 40.9552H56.875L62.5949 23.6548H66.1278L71.8758 40.9552ZM66.6819 33.7415L65.1799 29.224C65.021 28.7625 64.7232 27.6757 64.2839 25.9649H64.2305C64.0556 26.7007 63.7739 27.7875 63.3867 29.224L61.9113 33.7415H66.6819Z" fill="white"/>
    <path d="M86.5855 34.5644C86.5855 36.686 85.9967 38.363 84.8191 39.5941C83.7643 40.69 82.4545 41.2373 80.891 41.2373C79.2033 41.2373 77.9909 40.6471 77.2526 39.4667H77.1992V46.0382H74.3525V32.5871C74.3525 31.2533 74.3165 29.8844 74.2471 28.4804H76.7505L76.9094 30.4577H76.9628C77.9122 28.9679 79.3528 28.2243 81.2862 28.2243C82.7976 28.2243 84.0594 28.8054 85.0688 29.9689C86.0808 31.1337 86.5855 32.6651 86.5855 34.5644ZM83.6855 34.6658C83.6855 33.4516 83.4051 32.4506 82.8417 31.6628C82.2261 30.8412 81.3997 30.4304 80.3636 30.4304C79.6612 30.4304 79.023 30.6592 78.4529 31.1103C77.8814 31.5653 77.5076 32.1594 77.3327 32.8952C77.2446 33.2384 77.2005 33.5192 77.2005 33.7402V35.8202C77.2005 36.7276 77.4862 37.4933 78.0577 38.1186C78.6292 38.7439 79.3715 39.0559 80.2848 39.0559C81.3569 39.0559 82.1914 38.6529 82.7883 37.8495C83.3864 37.0448 83.6855 35.984 83.6855 34.6658Z" fill="white"/>
    <path d="M101.322 34.5644C101.322 36.686 100.734 38.363 99.5547 39.5941C98.5012 40.69 97.1914 41.2373 95.6279 41.2373C93.9402 41.2373 92.7279 40.6471 91.9909 39.4667H91.9374V46.0382H89.0908V32.5871C89.0908 31.2533 89.0548 29.8844 88.9854 28.4804H91.4888L91.6477 30.4577H91.7011C92.6491 28.9679 94.0898 28.2243 96.0245 28.2243C97.5346 28.2243 98.7963 28.8054 99.8084 29.9689C100.816 31.1337 101.322 32.6651 101.322 34.5644ZM98.4225 34.6658C98.4225 33.4516 98.1407 32.4506 97.5773 31.6628C96.9618 30.8412 96.1379 30.4304 95.1005 30.4304C94.3969 30.4304 93.76 30.6592 93.1885 31.1103C92.6171 31.5653 92.2445 32.1594 92.0696 32.8952C91.9828 33.2384 91.9374 33.5192 91.9374 33.7402V35.8202C91.9374 36.7276 92.2232 37.4933 92.792 38.1186C93.3634 38.7426 94.1058 39.0559 95.0217 39.0559C96.0939 39.0559 96.9284 38.6529 97.5252 37.8495C98.1234 37.0448 98.4225 35.984 98.4225 34.6658Z" fill="white"/>
    <path d="M117.799 36.1036C117.799 37.5752 117.274 38.7725 116.221 39.6968C115.063 40.7069 113.451 41.2113 111.38 41.2113C109.468 41.2113 107.936 40.8525 106.775 40.1336L107.435 37.8235C108.685 38.5593 110.056 38.9285 111.55 38.9285C112.622 38.9285 113.457 38.6919 114.056 38.2213C114.653 37.7507 114.951 37.1189 114.951 36.3311C114.951 35.6291 114.705 35.0376 114.212 34.5579C113.722 34.0782 112.904 33.6323 111.761 33.2202C108.65 32.0905 107.096 30.4356 107.096 28.2594C107.096 26.8372 107.641 25.6711 108.731 24.7637C109.818 23.855 111.268 23.4013 113.081 23.4013C114.698 23.4013 116.042 23.6756 117.114 24.2229L116.402 26.4823C115.401 25.9519 114.268 25.6867 113.001 25.6867C112 25.6867 111.218 25.9272 110.657 26.4056C110.183 26.8333 109.945 27.3546 109.945 27.9721C109.945 28.6559 110.216 29.2214 110.761 29.666C111.235 30.0768 112.096 30.5214 113.346 31.0011C114.875 31.6004 115.998 32.3011 116.72 33.1045C117.44 33.9053 117.799 34.9076 117.799 36.1036Z" fill="white"/>
    <path d="M127.21 30.5604H124.072V36.6171C124.072 38.1576 124.625 38.9272 125.733 38.9272C126.242 38.9272 126.664 38.8843 126.998 38.7985L127.077 40.9032C126.516 41.1073 125.777 41.21 124.863 41.21C123.739 41.21 122.86 40.8759 122.226 40.209C121.594 39.5408 121.276 38.4202 121.276 36.8459V30.5578H119.407V28.4778H121.276V26.1937L124.072 25.3721V28.4778H127.21V30.5604Z" fill="white"/>
    <path d="M141.367 34.6151C141.367 36.5326 140.803 38.1069 139.679 39.338C138.5 40.6055 136.935 41.2373 134.985 41.2373C133.105 41.2373 131.608 40.6302 130.492 39.416C129.375 38.2018 128.817 36.6691 128.817 34.8218C128.817 32.8887 129.392 31.3053 130.544 30.0742C131.693 28.8418 133.245 28.2256 135.196 28.2256C137.076 28.2256 138.588 28.8327 139.73 30.0482C140.822 31.2273 141.367 32.7496 141.367 34.6151ZM138.413 34.7048C138.413 33.5543 138.161 32.5676 137.65 31.7447C137.053 30.7489 136.2 30.2523 135.094 30.2523C133.95 30.2523 133.081 30.7502 132.484 31.7447C131.972 32.5689 131.72 33.5712 131.72 34.7568C131.72 35.9073 131.972 36.894 132.484 37.7156C133.099 38.7114 133.959 39.208 135.069 39.208C136.156 39.208 137.009 38.701 137.624 37.6896C138.149 36.8511 138.413 35.854 138.413 34.7048Z" fill="white"/>
    <path d="M150.62 30.9179C150.338 30.8672 150.037 30.8412 149.722 30.8412C148.721 30.8412 147.946 31.2091 147.402 31.9462C146.928 32.5962 146.69 33.4178 146.69 34.4097V40.9552H143.845L143.871 32.409C143.871 30.9712 143.835 29.6621 143.765 28.4817H146.244L146.348 30.8685H146.427C146.727 30.0482 147.201 29.3878 147.85 28.8925C148.485 28.4466 149.169 28.2243 149.908 28.2243C150.171 28.2243 150.409 28.2425 150.62 28.275V30.9179Z" fill="white"/>
    <path d="M163.35 34.1276C163.35 34.6242 163.317 35.0428 163.246 35.3847H154.706C154.74 36.6171 155.152 37.5596 155.945 38.2096C156.665 38.7907 157.596 39.0819 158.739 39.0819C160.003 39.0819 161.157 38.8856 162.194 38.4917L162.64 40.4157C161.428 40.9305 159.996 41.1866 158.345 41.1866C156.358 41.1866 154.798 40.6172 153.664 39.4797C152.531 38.3422 151.964 36.8147 151.964 34.8985C151.964 33.0174 152.491 31.4509 153.547 30.2016C154.653 28.8678 156.147 28.2009 158.027 28.2009C159.874 28.2009 161.271 28.8678 162.221 30.2016C162.972 31.2611 163.35 32.5715 163.35 34.1276ZM160.636 33.4087C160.655 32.5871 160.469 31.8773 160.083 31.278C159.59 30.5071 158.833 30.1223 157.815 30.1223C156.884 30.1223 156.127 30.498 155.549 31.252C155.075 31.8513 154.793 32.5702 154.706 33.4074H160.636V33.4087Z" fill="white"/>
</svg>
