<svg width="26" height="22" viewBox="0 0 26 22" fill="none" xmlns="http://www.w3.org/2000/svg">
<g id="Group">
<path id="Vector" d="M1.69513 10.1169C1.65203 9.94489 1.64872 9.7653 1.68545 9.59181C1.72217 9.41831 1.79797 9.25547 1.90707 9.11567C2.01617 8.97586 2.15571 8.86276 2.31508 8.78497C2.47445 8.70719 2.64945 8.66675 2.82679 8.66675H23.1735C23.3507 8.6668 23.5255 8.70722 23.6848 8.78494C23.8441 8.86266 23.9835 8.97564 24.0926 9.11531C24.2017 9.25497 24.2775 9.41765 24.3143 9.591C24.3512 9.76435 24.348 9.9438 24.3051 10.1157L22.1923 18.5659C22.0661 19.0707 21.7748 19.5188 21.3647 19.8391C20.9547 20.1593 20.4493 20.3333 19.929 20.3334H6.07129C5.55097 20.3333 5.0456 20.1593 4.63551 19.8391C4.22542 19.5188 3.93414 19.0707 3.80796 18.5659L1.69513 10.1169Z" stroke="#EC1220" stroke-width="2" stroke-linejoin="round"/>
<path id="Vector_2" d="M9.5 13.3334V15.6667M16.5 13.3334V15.6667M6 8.66675L10.6667 1.66675M20 8.66675L15.3333 1.66675" stroke="#EC1220" stroke-width="2" stroke-linecap="round"/>
</g>
</svg>
