<svg width="181" height="52" viewBox="0 0 181 52" fill="none" xmlns="http://www.w3.org/2000/svg">
<path d="M173.583 52H6.91667C3.25167 52 0.25 49.0734 0.25 45.5V6.5C0.25 2.92663 3.25167 1.90735e-06 6.91667 1.90735e-06H173.583C177.248 1.90735e-06 180.25 2.92663 180.25 6.5V45.5C180.25 49.0734 177.248 52 173.583 52Z" fill="white"/>
<path d="M173.583 1.04162C176.67 1.04162 179.182 3.4905 179.182 6.5V45.5C179.182 48.5095 176.67 50.9584 173.583 50.9584H6.91667C3.83 50.9584 1.31833 48.5095 1.31833 45.5V6.5C1.31833 3.4905 3.83 1.04162 6.91667 1.04162H173.583ZM173.583 1.90735e-06H6.91667C3.25167 1.90735e-06 0.25 2.92663 0.25 6.5V45.5C0.25 49.0734 3.25167 52 6.91667 52H173.583C177.248 52 180.25 49.0734 180.25 45.5V6.5C180.25 2.92663 177.248 1.90735e-06 173.583 1.90735e-06Z" fill="white"/>
<path d="M14.1633 9.80038C13.7716 10.2001 13.5449 10.8225 13.5449 11.6285V40.378C13.5449 41.184 13.7716 41.8064 14.1633 42.2061L14.2599 42.2939L30.7832 26.1901V25.8099L14.2599 9.70613L14.1633 9.80038Z" fill="url(#paint0_linear_430_3471)"/>
<path d="M36.2849 31.5607L30.7832 26.1901V25.8099L36.2915 20.4392L36.4149 20.5091L42.9382 24.128C44.7999 25.155 44.7999 26.845 42.9382 27.8785L36.4149 31.4909L36.2849 31.5607Z" fill="url(#paint1_linear_430_3471)"/>
<path d="M36.4157 31.4909L30.7841 26L14.1641 42.2061C14.7824 42.8399 15.7907 42.9162 16.9374 42.2825L36.4157 31.4909Z" fill="url(#paint2_linear_430_3471)"/>
<path d="M36.4157 20.5091L16.9374 9.71751C15.7907 9.09026 14.7824 9.16663 14.1641 9.80038L30.7841 26L36.4157 20.5091Z" fill="url(#paint3_linear_430_3471)"/>
<path d="M63.4734 13.3169C63.4734 14.4024 63.1401 15.2717 62.4834 15.9201C61.7284 16.6887 60.7451 17.0755 59.5401 17.0755C58.3884 17.0755 57.405 16.6822 56.5984 15.9071C55.79 15.1206 55.3867 14.1554 55.3867 13C55.3867 11.8446 55.79 10.8794 56.5984 10.0994C57.405 9.31775 58.3884 8.9245 59.5401 8.9245C60.1134 8.9245 60.6601 9.03987 61.1817 9.25437C61.7017 9.4705 62.1251 9.763 62.4317 10.1237L61.7351 10.8095C61.2001 10.1936 60.4717 9.88975 59.5401 9.88975C58.7001 9.88975 57.9717 10.1757 57.3534 10.7526C56.7417 11.3311 56.435 12.0802 56.435 13C56.435 13.9197 56.7417 14.6754 57.3534 15.2539C57.9717 15.8242 58.7001 16.1167 59.5401 16.1167C60.4317 16.1167 61.1817 15.8242 61.7734 15.2474C62.1634 14.8655 62.3851 14.339 62.4434 13.6662H59.5401V12.727H63.4134C63.4601 12.9301 63.4734 13.1267 63.4734 13.3169Z" fill="#323232" stroke="#323232" stroke-width="0.16" stroke-miterlimit="10"/>
<path d="M69.6176 10.0604H65.9792V12.5304H69.2592V13.4696H65.9792V15.9396H69.6176V16.8967H64.9492V9.10324H69.6176V10.0604Z" fill="#323232" stroke="#323232" stroke-width="0.16" stroke-miterlimit="10"/>
<path d="M73.955 16.8967H72.925V10.0604H70.6934V9.10324H76.1884V10.0604H73.955V16.8967Z" fill="#323232" stroke="#323232" stroke-width="0.16" stroke-miterlimit="10"/>
<path d="M80.166 16.8967V9.10324H81.1944V16.8967H80.166Z" fill="#323232" stroke="#323232" stroke-width="0.16" stroke-miterlimit="10"/>
<path d="M85.7519 16.8967H84.7302V10.0604H82.4902V9.10324H87.9919V10.0604H85.7519V16.8967Z" fill="#323232" stroke="#323232" stroke-width="0.16" stroke-miterlimit="10"/>
<path d="M98.3946 15.8941C97.6063 16.6822 96.6296 17.0755 95.4646 17.0755C94.2929 17.0755 93.3163 16.6822 92.5279 15.8941C91.7413 15.1076 91.3496 14.1424 91.3496 13C91.3496 11.8576 91.7413 10.8924 92.5279 10.1059C93.3163 9.31775 94.2929 8.9245 95.4646 8.9245C96.6229 8.9245 97.5996 9.31775 98.388 10.1124C99.1813 10.9054 99.5729 11.8641 99.5729 13C99.5729 14.1424 99.1813 15.1076 98.3946 15.8941ZM93.2896 15.2409C93.8829 15.8242 94.6046 16.1167 95.4646 16.1167C96.3179 16.1167 97.0463 15.8242 97.6329 15.2409C98.2246 14.6575 98.5246 13.9084 98.5246 13C98.5246 12.0916 98.2246 11.3425 97.6329 10.7591C97.0463 10.1757 96.3179 9.88325 95.4646 9.88325C94.6046 9.88325 93.8829 10.1757 93.2896 10.7591C92.6979 11.3425 92.3979 12.0916 92.3979 13C92.3979 13.9084 92.6979 14.6575 93.2896 15.2409Z" fill="#323232" stroke="#323232" stroke-width="0.16" stroke-miterlimit="10"/>
<path d="M101.018 16.8967V9.10324H102.268L106.154 15.1645H106.199L106.154 13.6662V9.10324H107.183V16.8967H106.109L102.039 10.5365H101.994L102.039 12.0412V16.8967H101.018Z" fill="#323232" stroke="#323232" stroke-width="0.16" stroke-miterlimit="10"/>
<path d="M91.0974 28.2783C87.9657 28.2783 85.4074 30.602 85.4074 33.8082C85.4074 36.9883 87.9657 39.3364 91.0974 39.3364C94.2357 39.3364 96.794 36.9883 96.794 33.8082C96.794 30.602 94.2357 28.2783 91.0974 28.2783ZM91.0974 37.1589C89.379 37.1589 87.9007 35.776 87.9007 33.8082C87.9007 31.8143 89.379 30.4558 91.0974 30.4558C92.8157 30.4558 94.3007 31.8143 94.3007 33.8082C94.3007 35.776 92.8157 37.1589 91.0974 37.1589ZM78.6824 28.2783C75.544 28.2783 72.9924 30.602 72.9924 33.8082C72.9924 36.9883 75.544 39.3364 78.6824 39.3364C81.819 39.3364 84.3724 36.9883 84.3724 33.8082C84.3724 30.602 81.819 28.2783 78.6824 28.2783ZM78.6824 37.1589C76.9624 37.1589 75.479 35.776 75.479 33.8082C75.479 31.8143 76.9624 30.4558 78.6824 30.4558C80.4007 30.4558 81.879 31.8143 81.879 33.8082C81.879 35.776 80.4007 37.1589 78.6824 37.1589ZM63.909 29.9732V32.3229H69.664C69.4957 33.6359 69.0457 34.6012 68.3557 35.2739C67.5157 36.0864 66.2074 36.9883 63.909 36.9883C60.3674 36.9883 57.594 34.2014 57.594 30.7483C57.594 27.2952 60.3674 24.5083 63.909 24.5083C65.824 24.5083 67.2174 25.2379 68.2457 26.1837L69.944 24.5278C68.5057 23.1888 66.5924 22.1602 63.909 22.1602C59.0524 22.1602 54.9707 26.013 54.9707 30.7483C54.9707 35.4835 59.0524 39.3364 63.909 39.3364C66.534 39.3364 68.5057 38.4979 70.0557 36.9249C71.644 35.3763 72.139 33.1988 72.139 31.4405C72.139 30.8945 72.0924 30.3924 72.009 29.9732H63.909ZM124.319 31.7948C123.851 30.5582 122.406 28.2783 119.462 28.2783C116.546 28.2783 114.117 30.5192 114.117 33.8082C114.117 36.9054 116.521 39.3364 119.742 39.3364C122.347 39.3364 123.851 37.7878 124.469 36.8859L122.536 35.6298C121.891 36.5495 121.012 37.1589 119.742 37.1589C118.481 37.1589 117.576 36.595 116.996 35.4835L124.581 32.4237L124.319 31.7948ZM116.586 33.6359C116.521 31.5039 118.284 30.4119 119.547 30.4119C120.537 30.4119 121.377 30.8945 121.657 31.5852L116.586 33.6359ZM110.421 39H112.914V22.75H110.421V39ZM106.337 29.51H106.254C105.694 28.8633 104.626 28.2783 103.272 28.2783C100.432 28.2783 97.8357 30.7093 97.8357 33.826C97.8357 36.9249 100.432 39.3364 103.272 39.3364C104.626 39.3364 105.694 38.7465 106.254 38.0803H106.337V38.8733C106.337 40.9874 105.179 42.1233 103.311 42.1233C101.787 42.1233 100.842 41.0508 100.452 40.1489L98.284 41.0313C98.909 42.497 100.564 44.3008 103.311 44.3008C106.234 44.3008 108.701 42.6238 108.701 38.5434V28.6147H106.337V29.51ZM103.486 37.1589C101.767 37.1589 100.329 35.7565 100.329 33.826C100.329 31.8777 101.767 30.4558 103.486 30.4558C105.179 30.4558 106.514 31.8777 106.514 33.826C106.514 35.7565 105.179 37.1589 103.486 37.1589ZM135.992 22.75H130.029V39H132.516V32.8429H135.992C138.754 32.8429 141.462 30.8945 141.462 27.7957C141.462 24.6984 138.747 22.75 135.992 22.75ZM136.057 30.5825H132.516V25.0104H136.057C137.914 25.0104 138.974 26.5135 138.974 27.7957C138.974 29.0534 137.914 30.5825 136.057 30.5825ZM151.429 28.2474C149.632 28.2474 147.764 29.0209 146.996 30.7353L149.202 31.6372C149.677 30.7353 150.551 30.4428 151.474 30.4428C152.764 30.4428 154.072 31.1984 154.092 32.5325V32.7032C153.642 32.4497 152.679 32.0743 151.494 32.0743C149.117 32.0743 146.696 33.3499 146.696 35.7305C146.696 37.908 148.642 39.3104 150.831 39.3104C152.504 39.3104 153.427 38.5743 154.007 37.7179H154.092V38.974H156.494V32.7405C156.494 29.8594 154.287 28.2474 151.429 28.2474ZM151.129 37.1524C150.316 37.1524 149.182 36.7592 149.182 35.776C149.182 34.5183 150.596 34.0357 151.819 34.0357C152.914 34.0357 153.427 34.2713 154.092 34.5817C153.897 36.0864 152.569 37.1524 151.129 37.1524ZM165.244 28.6033L162.386 35.6477H162.301L159.346 28.6033H156.664L161.104 38.4475L158.571 43.9254H161.169L168.011 28.6033H165.244ZM142.829 39H145.322V22.75H142.829V39Z" fill="#323232"/>
<defs>
<linearGradient id="paint0_linear_430_3471" x1="29.3162" y1="40.6774" x2="7.50605" y2="18.308" gradientUnits="userSpaceOnUse">
<stop stop-color="#00A0FF"/>
<stop offset="0.0066" stop-color="#00A1FF"/>
<stop offset="0.2601" stop-color="#00BEFF"/>
<stop offset="0.5122" stop-color="#00D2FF"/>
<stop offset="0.7604" stop-color="#00DFFF"/>
<stop offset="1" stop-color="#00E3FF"/>
</linearGradient>
<linearGradient id="paint1_linear_430_3471" x1="45.3624" y1="25.9982" x2="13.0999" y2="25.9982" gradientUnits="userSpaceOnUse">
<stop stop-color="#FFE000"/>
<stop offset="0.4087" stop-color="#FFBD00"/>
<stop offset="0.7754" stop-color="#FFA500"/>
<stop offset="1" stop-color="#FF9C00"/>
</linearGradient>
<linearGradient id="paint2_linear_430_3471" x1="33.3534" y1="23.0151" x2="3.77709" y2="-7.3196" gradientUnits="userSpaceOnUse">
<stop stop-color="#FF3A44"/>
<stop offset="1" stop-color="#C31162"/>
</linearGradient>
<linearGradient id="paint3_linear_430_3471" x1="9.98046" y1="51.7709" x2="23.1876" y2="38.2253" gradientUnits="userSpaceOnUse">
<stop stop-color="#32A071"/>
<stop offset="0.0685" stop-color="#2DA771"/>
<stop offset="0.4762" stop-color="#15CF74"/>
<stop offset="0.8009" stop-color="#06E775"/>
<stop offset="1" stop-color="#00F076"/>
</linearGradient>
</defs>
</svg>
