<svg width="181" height="52" viewBox="0 0 181 52" fill="none" xmlns="http://www.w3.org/2000/svg">
<path d="M173.833 52H7.16667C3.50167 52 0.5 49.0734 0.5 45.5V6.5C0.5 2.92663 3.50167 1.90735e-06 7.16667 1.90735e-06H173.833C177.498 1.90735e-06 180.5 2.92663 180.5 6.5V45.5C180.5 49.0734 177.498 52 173.833 52Z" fill="#323232"/>
<path d="M173.833 1.04162C176.92 1.04162 179.432 3.4905 179.432 6.5V45.5C179.432 48.5095 176.92 50.9584 173.833 50.9584H7.16667C4.08 50.9584 1.56833 48.5095 1.56833 45.5V6.5C1.56833 3.4905 4.08 1.04162 7.16667 1.04162H173.833ZM173.833 1.90735e-06H7.16667C3.50167 1.90735e-06 0.5 2.92663 0.5 6.5V45.5C0.5 49.0734 3.50167 52 7.16667 52H173.833C177.498 52 180.5 49.0734 180.5 45.5V6.5C180.5 2.92663 177.498 1.90735e-06 173.833 1.90735e-06Z" fill="#323232"/>
<path d="M14.4133 9.80032C14.0216 10.2001 13.7949 10.8224 13.7949 11.6284V40.3779C13.7949 41.1839 14.0216 41.8063 14.4133 42.2061L14.5099 42.2938L31.0332 26.1901V25.8098L14.5099 9.70607L14.4133 9.80032Z" fill="url(#paint0_linear_606_1805)"/>
<path d="M36.5349 31.5607L31.0332 26.1901V25.8099L36.5415 20.4392L36.6649 20.5091L43.1882 24.128C45.0499 25.155 45.0499 26.845 43.1882 27.8785L36.6649 31.4909L36.5349 31.5607Z" fill="url(#paint1_linear_606_1805)"/>
<path d="M36.6647 31.4908L31.0331 26L14.4131 42.2061C15.0314 42.8398 16.0398 42.9162 17.1864 42.2825L36.6647 31.4908Z" fill="url(#paint2_linear_606_1805)"/>
<path d="M36.6647 20.5091L17.1864 9.71751C16.0398 9.09026 15.0314 9.16663 14.4131 9.80038L31.0331 26L36.6647 20.5091Z" fill="url(#paint3_linear_606_1805)"/>
<path d="M63.7234 13.3169C63.7234 14.4024 63.3901 15.2717 62.7334 15.9201C61.9784 16.6887 60.9951 17.0755 59.7901 17.0755C58.6384 17.0755 57.655 16.6822 56.8484 15.9071C56.04 15.1206 55.6367 14.1554 55.6367 13C55.6367 11.8446 56.04 10.8794 56.8484 10.0994C57.655 9.31775 58.6384 8.9245 59.7901 8.9245C60.3634 8.9245 60.9101 9.03987 61.4317 9.25437C61.9517 9.4705 62.3751 9.763 62.6817 10.1237L61.9851 10.8095C61.4501 10.1936 60.7217 9.88975 59.7901 9.88975C58.9501 9.88975 58.2217 10.1757 57.6034 10.7526C56.9917 11.3311 56.685 12.0802 56.685 13C56.685 13.9197 56.9917 14.6754 57.6034 15.2539C58.2217 15.8242 58.9501 16.1167 59.7901 16.1167C60.6817 16.1167 61.4317 15.8242 62.0234 15.2474C62.4134 14.8655 62.6351 14.339 62.6934 13.6662H59.7901V12.727H63.6634C63.7101 12.9301 63.7234 13.1267 63.7234 13.3169Z" fill="white" stroke="white" stroke-width="0.16" stroke-miterlimit="10"/>
<path d="M69.8685 10.0604H66.2302V12.5304H69.5102V13.4696H66.2302V15.9396H69.8685V16.8968H65.2002V9.10327H69.8685V10.0604Z" fill="white" stroke="white" stroke-width="0.16" stroke-miterlimit="10"/>
<path d="M74.205 16.8968H73.175V10.0604H70.9434V9.10327H76.4384V10.0604H74.205V16.8968Z" fill="white" stroke="white" stroke-width="0.16" stroke-miterlimit="10"/>
<path d="M80.415 16.8968V9.10327H81.4434V16.8968H80.415Z" fill="white" stroke="white" stroke-width="0.16" stroke-miterlimit="10"/>
<path d="M86.0019 16.8968H84.9802V10.0604H82.7402V9.10327H88.2419V10.0604H86.0019V16.8968Z" fill="white" stroke="white" stroke-width="0.16" stroke-miterlimit="10"/>
<path d="M98.6446 15.8941C97.8563 16.6822 96.8796 17.0755 95.7146 17.0755C94.5429 17.0755 93.5663 16.6822 92.7779 15.8941C91.9913 15.1076 91.5996 14.1424 91.5996 13C91.5996 11.8576 91.9913 10.8924 92.7779 10.1059C93.5663 9.31775 94.5429 8.9245 95.7146 8.9245C96.8729 8.9245 97.8496 9.31775 98.638 10.1124C99.4313 10.9054 99.8229 11.8641 99.8229 13C99.8229 14.1424 99.4313 15.1076 98.6446 15.8941ZM93.5396 15.2409C94.1329 15.8242 94.8546 16.1167 95.7146 16.1167C96.5679 16.1167 97.2963 15.8242 97.8829 15.2409C98.4746 14.6575 98.7746 13.9084 98.7746 13C98.7746 12.0916 98.4746 11.3425 97.8829 10.7591C97.2963 10.1757 96.5679 9.88325 95.7146 9.88325C94.8546 9.88325 94.1329 10.1757 93.5396 10.7591C92.9479 11.3425 92.6479 12.0916 92.6479 13C92.6479 13.9084 92.9479 14.6575 93.5396 15.2409Z" fill="white" stroke="white" stroke-width="0.16" stroke-miterlimit="10"/>
<path d="M101.269 16.8968V9.10327H102.519L106.405 15.1645H106.45L106.405 13.6663V9.10327H107.434V16.8968H106.36L102.29 10.5365H102.245L102.29 12.0413V16.8968H101.269Z" fill="white" stroke="white" stroke-width="0.16" stroke-miterlimit="10"/>
<path d="M91.3464 28.2783C88.2147 28.2783 85.6564 30.602 85.6564 33.8082C85.6564 36.9883 88.2147 39.3364 91.3464 39.3364C94.4847 39.3364 97.043 36.9883 97.043 33.8082C97.043 30.602 94.4847 28.2783 91.3464 28.2783ZM91.3464 37.1589C89.628 37.1589 88.1497 35.776 88.1497 33.8082C88.1497 31.8143 89.628 30.4558 91.3464 30.4558C93.0647 30.4558 94.5497 31.8143 94.5497 33.8082C94.5497 35.776 93.0647 37.1589 91.3464 37.1589ZM78.9314 28.2783C75.793 28.2783 73.2414 30.602 73.2414 33.8082C73.2414 36.9883 75.793 39.3364 78.9314 39.3364C82.068 39.3364 84.6214 36.9883 84.6214 33.8082C84.6214 30.602 82.068 28.2783 78.9314 28.2783ZM78.9314 37.1589C77.2114 37.1589 75.7281 35.776 75.7281 33.8082C75.7281 31.8143 77.2114 30.4558 78.9314 30.4558C80.6497 30.4558 82.1281 31.8143 82.1281 33.8082C82.1281 35.776 80.6497 37.1589 78.9314 37.1589ZM64.1581 29.9732V32.3229H69.9131C69.7447 33.6359 69.2947 34.6012 68.6047 35.2739C67.7647 36.0864 66.4564 36.9883 64.1581 36.9883C60.6164 36.9883 57.8431 34.2014 57.8431 30.7483C57.8431 27.2952 60.6164 24.5083 64.1581 24.5083C66.0731 24.5083 67.4664 25.2379 68.4947 26.1837L70.1931 24.5278C68.7547 23.1888 66.8414 22.1602 64.1581 22.1602C59.3014 22.1602 55.2197 26.013 55.2197 30.7483C55.2197 35.4835 59.3014 39.3364 64.1581 39.3364C66.7831 39.3364 68.7547 38.4979 70.3047 36.9249C71.8931 35.3763 72.3881 33.1988 72.3881 31.4405C72.3881 30.8945 72.3414 30.3924 72.2581 29.9732H64.1581ZM124.568 31.7948C124.1 30.5582 122.655 28.2783 119.711 28.2783C116.795 28.2783 114.366 30.5192 114.366 33.8082C114.366 36.9054 116.77 39.3364 119.991 39.3364C122.596 39.3364 124.1 37.7878 124.718 36.8859L122.785 35.6298C122.14 36.5495 121.261 37.1589 119.991 37.1589C118.73 37.1589 117.825 36.595 117.245 35.4835L124.83 32.4237L124.568 31.7948ZM116.835 33.6359C116.77 31.5039 118.533 30.4119 119.796 30.4119C120.786 30.4119 121.626 30.8945 121.906 31.5852L116.835 33.6359ZM110.67 39H113.163V22.75H110.67V39ZM106.586 29.51H106.503C105.943 28.8633 104.875 28.2783 103.521 28.2783C100.681 28.2783 98.0847 30.7093 98.0847 33.826C98.0847 36.9249 100.681 39.3364 103.521 39.3364C104.875 39.3364 105.943 38.7465 106.503 38.0803H106.586V38.8733C106.586 40.9874 105.428 42.1233 103.56 42.1233C102.036 42.1233 101.091 41.0508 100.701 40.1489L98.533 41.0313C99.158 42.497 100.813 44.3008 103.56 44.3008C106.483 44.3008 108.95 42.6238 108.95 38.5434V28.6147H106.586V29.51ZM103.735 37.1589C102.016 37.1589 100.578 35.7565 100.578 33.826C100.578 31.8777 102.016 30.4558 103.735 30.4558C105.428 30.4558 106.763 31.8777 106.763 33.826C106.763 35.7565 105.428 37.1589 103.735 37.1589ZM136.241 22.75H130.278V39H132.765V32.8429H136.241C139.003 32.8429 141.711 30.8945 141.711 27.7957C141.711 24.6984 138.996 22.75 136.241 22.75ZM136.306 30.5825H132.765V25.0104H136.306C138.163 25.0104 139.223 26.5135 139.223 27.7957C139.223 29.0534 138.163 30.5825 136.306 30.5825ZM151.678 28.2474C149.881 28.2474 148.013 29.0209 147.245 30.7353L149.451 31.6372C149.926 30.7353 150.8 30.4428 151.723 30.4428C153.013 30.4428 154.321 31.1984 154.341 32.5325V32.7032C153.891 32.4497 152.928 32.0743 151.743 32.0743C149.366 32.0743 146.945 33.3499 146.945 35.7305C146.945 37.908 148.891 39.3104 151.08 39.3104C152.753 39.3104 153.676 38.5743 154.256 37.7179H154.341V38.974H156.743V32.7405C156.743 29.8594 154.536 28.2474 151.678 28.2474ZM151.378 37.1524C150.565 37.1524 149.431 36.7592 149.431 35.776C149.431 34.5183 150.845 34.0357 152.068 34.0357C153.163 34.0357 153.676 34.2713 154.341 34.5817C154.146 36.0864 152.818 37.1524 151.378 37.1524ZM165.493 28.6033L162.635 35.6477H162.55L159.595 28.6033H156.913L161.353 38.4475L158.82 43.9254H161.418L168.26 28.6033H165.493ZM143.078 39H145.571V22.75H143.078V39Z" fill="white"/>
<defs>
<linearGradient id="paint0_linear_606_1805" x1="29.5662" y1="40.6773" x2="7.75605" y2="18.308" gradientUnits="userSpaceOnUse">
<stop stop-color="#00A0FF"/>
<stop offset="0.0066" stop-color="#00A1FF"/>
<stop offset="0.2601" stop-color="#00BEFF"/>
<stop offset="0.5122" stop-color="#00D2FF"/>
<stop offset="0.7604" stop-color="#00DFFF"/>
<stop offset="1" stop-color="#00E3FF"/>
</linearGradient>
<linearGradient id="paint1_linear_606_1805" x1="45.6124" y1="25.9982" x2="13.3499" y2="25.9982" gradientUnits="userSpaceOnUse">
<stop stop-color="#FFE000"/>
<stop offset="0.4087" stop-color="#FFBD00"/>
<stop offset="0.7754" stop-color="#FFA500"/>
<stop offset="1" stop-color="#FF9C00"/>
</linearGradient>
<linearGradient id="paint2_linear_606_1805" x1="33.6024" y1="23.015" x2="4.02611" y2="-7.31963" gradientUnits="userSpaceOnUse">
<stop stop-color="#FF3A44"/>
<stop offset="1" stop-color="#C31162"/>
</linearGradient>
<linearGradient id="paint3_linear_606_1805" x1="10.2295" y1="51.7709" x2="23.4366" y2="38.2253" gradientUnits="userSpaceOnUse">
<stop stop-color="#32A071"/>
<stop offset="0.0685" stop-color="#2DA771"/>
<stop offset="0.4762" stop-color="#15CF74"/>
<stop offset="0.8009" stop-color="#06E775"/>
<stop offset="1" stop-color="#00F076"/>
</linearGradient>
</defs>
</svg>
