<svg width="44" height="44" viewBox="0 0 44 44" fill="none" xmlns="http://www.w3.org/2000/svg">
<g id="ic:round-history">
<path id="Vector" d="M24.3106 5.49956C14.979 5.2429 7.33396 12.7412 7.33396 21.9996H4.05229C3.22729 21.9996 2.82396 22.9896 3.41063 23.5579L8.52563 28.6912C8.89229 29.0579 9.46063 29.0579 9.82729 28.6912L14.9423 23.5579C15.069 23.4287 15.1546 23.2648 15.1883 23.087C15.222 22.9092 15.2023 22.7254 15.1318 22.5587C15.0612 22.3921 14.9428 22.25 14.7917 22.1505C14.6405 22.051 14.4633 21.9985 14.2823 21.9996H11.0006C11.0006 14.8496 16.8306 9.07456 24.0173 9.16623C30.8373 9.2579 36.5756 14.9962 36.6673 21.8162C36.759 28.9846 30.984 34.8329 23.834 34.8329C20.8823 34.8329 18.1506 33.8246 15.9873 32.1196C15.6361 31.8429 15.1956 31.705 14.7494 31.7321C14.3032 31.7591 13.8825 31.9492 13.5673 32.2662C12.7973 33.0362 12.8523 34.3379 13.714 34.9979C16.5945 37.2755 20.1618 38.5098 23.834 38.4996C33.0923 38.4996 40.5906 30.8546 40.334 21.5229C40.0956 12.9246 32.909 5.7379 24.3106 5.49956ZM23.3756 14.6662C22.624 14.6662 22.0006 15.2896 22.0006 16.0412V22.7879C22.0006 23.4296 22.349 24.0346 22.899 24.3646L28.619 27.7562C29.279 28.1412 30.1223 27.9212 30.5073 27.2796C30.8923 26.6196 30.6723 25.7762 30.0306 25.3912L24.7506 22.2562V16.0229C24.7506 15.2896 24.1273 14.6662 23.3756 14.6662Z" fill="#EC1220"/>
</g>
</svg>
