<svg width="16" height="17" viewBox="0 0 16 17" fill="none" xmlns="http://www.w3.org/2000/svg">
<g id="humbleicons:location">
<g id="Group">
<path id="Vector" d="M8.66536 6.5001C8.66536 6.67691 8.59513 6.84648 8.4701 6.97151C8.34508 7.09653 8.17551 7.16677 7.9987 7.16677C7.82189 7.16677 7.65232 7.09653 7.52729 6.97151C7.40227 6.84648 7.33203 6.67691 7.33203 6.5001C7.33203 6.32329 7.40227 6.15372 7.52729 6.0287C7.65232 5.90367 7.82189 5.83344 7.9987 5.83344C8.17551 5.83344 8.34508 5.90367 8.4701 6.0287C8.59513 6.15372 8.66536 6.32329 8.66536 6.5001Z" stroke="#868686" stroke-width="2" stroke-linejoin="round"/>
<path id="Vector_2" d="M11.6654 6.83341C11.6654 8.85875 10.332 11.1667 7.9987 13.8334C5.66536 11.1667 4.33203 8.85875 4.33203 6.83341C4.33203 5.86095 4.71834 4.92832 5.40597 4.24069C6.09361 3.55306 7.02624 3.16675 7.9987 3.16675C8.97116 3.16675 9.90379 3.55306 10.5914 4.24069C11.2791 4.92832 11.6654 5.86095 11.6654 6.83341Z" stroke="#868686" stroke-width="2" stroke-linejoin="round"/>
</g>
</g>
</svg>
