<svg width="160" height="59" viewBox="0 0 160 59" fill="none" xmlns="http://www.w3.org/2000/svg">
<g id="Logo" clip-path="url(#clip0_419_6634)">
<path id="Vector" d="M8.44255 17.1604C13.1052 17.1604 16.8851 13.3189 16.8851 8.58019C16.8851 3.84148 13.1052 0 8.44255 0C3.77986 0 0 3.84148 0 8.58019C0 13.3189 3.77986 17.1604 8.44255 17.1604Z" fill="white"/>
<path id="Vector_2" d="M28.9465 17.1604C33.6091 17.1604 37.389 13.3189 37.389 8.58019C37.389 3.84148 33.6091 0 28.9465 0C24.2838 0 20.5039 3.84148 20.5039 8.58019C20.5039 13.3189 24.2838 17.1604 28.9465 17.1604Z" fill="white"/>
<path id="Vector_3" d="M28.9465 37.9985C33.6091 37.9985 37.389 34.157 37.389 29.4183C37.389 24.6796 33.6091 20.8381 28.9465 20.8381C24.2838 20.8381 20.5039 24.6796 20.5039 29.4183C20.5039 34.157 24.2838 37.9985 28.9465 37.9985Z" fill="white"/>
<path id="Vector_4" d="M28.9465 58.8359C33.6091 58.8359 37.389 54.9944 37.389 50.2557C37.389 45.517 33.6091 41.6755 28.9465 41.6755C24.2838 41.6755 20.5039 45.517 20.5039 50.2557C20.5039 54.9944 24.2838 58.8359 28.9465 58.8359Z" fill="white"/>
<path id="Vector_5" d="M8.44255 58.8358C13.1052 58.8358 16.8851 54.9943 16.8851 50.2556C16.8851 45.5169 13.1052 41.6754 8.44255 41.6754C3.77986 41.6754 0 45.5169 0 50.2556C0 54.9943 3.77986 58.8358 8.44255 58.8358Z" fill="#EC1220"/>
<path id="Vector_6" d="M8.44255 37.9985C13.1052 37.9985 16.8851 34.157 16.8851 29.4183C16.8851 24.6796 13.1052 20.8381 8.44255 20.8381C3.77986 20.8381 0 24.6796 0 29.4183C0 34.157 3.77986 37.9985 8.44255 37.9985Z" fill="#EC1220"/>
<path id="Vector_7" d="M49.4504 37.9983C54.1131 37.9983 57.8929 34.1568 57.8929 29.4181C57.8929 24.6794 54.1131 20.8379 49.4504 20.8379C44.7877 20.8379 41.0078 24.6794 41.0078 29.4181C41.0078 34.1568 44.7877 37.9983 49.4504 37.9983Z" fill="#EC1220"/>
<path id="Vector_8" d="M49.4504 58.8357C54.1131 58.8357 57.8929 54.9942 57.8929 50.2555C57.8929 45.5168 54.1131 41.6753 49.4504 41.6753C44.7877 41.6753 41.0078 45.5168 41.0078 50.2555C41.0078 54.9942 44.7877 58.8357 49.4504 58.8357Z" fill="#EC1220"/>
<path id="Vector_9" d="M49.4504 17.1604C54.1131 17.1604 57.8929 13.3189 57.8929 8.58019C57.8929 3.84148 54.1131 0 49.4504 0C44.7877 0 41.0078 3.84148 41.0078 8.58019C41.0078 13.3189 44.7877 17.1604 49.4504 17.1604Z" fill="white"/>
<path id="Vector_10" d="M69.0352 23.1078H74.5827V38.3135H78.3696V23.1078H83.9172V19.8977H69.0352V23.1078Z" fill="#EC1220"/>
<path id="Vector_11" d="M85.8225 43.466C88.6272 43.466 90.1225 42.0184 90.8834 39.8063L96.1655 24.5197L92.1752 24.5017L89.3349 34.6448H89.1935L86.3799 24.5017H82.416L87.2911 38.7093L87.0699 39.2938C86.5392 40.5436 85.6277 40.6335 84.3007 40.211L83.4512 43.0794C83.9909 43.3042 84.8668 43.466 85.8225 43.466Z" fill="#EC1220"/>
<path id="Vector_12" d="M96.8477 38.3136H100.617V33.413H102.024L105.377 38.3136H109.854L104.997 31.3537L109.801 24.5017H105.377L101.679 29.8611H100.617V24.5017H96.8477V38.3136Z" fill="#EC1220"/>
<path id="Vector_13" d="M118.205 29.2316H109.941V32.2709H118.205V29.2316Z" fill="#EC1220"/>
<path id="Vector_14" d="M118.822 23.1078H124.37V38.3135H128.157V23.1078H133.704V19.8977H118.822V23.1078Z" fill="#EC1220"/>
<path id="Vector_15" d="M135.61 43.466C138.414 43.466 139.91 42.0184 140.67 39.8063L145.953 24.5197L141.962 24.5017L139.122 34.6448H138.981L136.167 24.5017H132.203L137.078 38.7093L136.857 39.2938C136.326 40.5436 135.415 40.6335 134.088 40.211L133.238 43.0794C133.778 43.3042 134.654 43.466 135.61 43.466Z" fill="#EC1220"/>
<path id="Vector_16" d="M146.635 38.3136H150.404V33.413H151.811L155.164 38.3136H159.641L154.784 31.3537L159.588 24.5017H155.164L151.466 29.8611H150.404V24.5017H146.635V38.3136Z" fill="#EC1220"/>
</g>
<defs>
<clipPath id="clip0_419_6634">
<rect width="160" height="59" fill="white"/>
</clipPath>
</defs>
</svg>
