<svg width="114" height="42" viewBox="0 0 114 42" fill="none" xmlns="http://www.w3.org/2000/svg">
<g id="Logo" clip-path="url(#clip0_77_578)">
<path id="Vector" d="M6.01532 12.2159C9.33748 12.2159 12.0306 9.48125 12.0306 6.10793C12.0306 2.73461 9.33748 0 6.01532 0C2.69315 0 0 2.73461 0 6.10793C0 9.48125 2.69315 12.2159 6.01532 12.2159Z" fill="#323232"/>
<path id="Vector_2" d="M20.6237 12.2159C23.9459 12.2159 26.639 9.48125 26.639 6.10793C26.639 2.73461 23.9459 0 20.6237 0C17.3015 0 14.6084 2.73461 14.6084 6.10793C14.6084 9.48125 17.3015 12.2159 20.6237 12.2159Z" fill="#323232"/>
<path id="Vector_3" d="M20.6237 27.0498C23.9459 27.0498 26.639 24.3152 26.639 20.9419C26.639 17.5686 23.9459 14.834 20.6237 14.834C17.3015 14.834 14.6084 17.5686 14.6084 20.9419C14.6084 24.3152 17.3015 27.0498 20.6237 27.0498Z" fill="#323232"/>
<path id="Vector_4" d="M20.6237 41.8831C23.9459 41.8831 26.639 39.1485 26.639 35.7752C26.639 32.4018 23.9459 29.6672 20.6237 29.6672C17.3015 29.6672 14.6084 32.4018 14.6084 35.7752C14.6084 39.1485 17.3015 41.8831 20.6237 41.8831Z" fill="#323232"/>
<path id="Vector_5" d="M6.01532 41.8831C9.33748 41.8831 12.0306 39.1485 12.0306 35.7752C12.0306 32.4018 9.33748 29.6672 6.01532 29.6672C2.69315 29.6672 0 32.4018 0 35.7752C0 39.1485 2.69315 41.8831 6.01532 41.8831Z" fill="#EC1220"/>
<path id="Vector_6" d="M6.01532 27.0498C9.33748 27.0498 12.0306 24.3152 12.0306 20.9419C12.0306 17.5686 9.33748 14.834 6.01532 14.834C2.69315 14.834 0 17.5686 0 20.9419C0 24.3152 2.69315 27.0498 6.01532 27.0498Z" fill="#EC1220"/>
<path id="Vector_7" d="M35.2321 27.0496C38.5543 27.0496 41.2474 24.315 41.2474 20.9417C41.2474 17.5684 38.5543 14.8337 35.2321 14.8337C31.9099 14.8337 29.2168 17.5684 29.2168 20.9417C29.2168 24.315 31.9099 27.0496 35.2321 27.0496Z" fill="#EC1220"/>
<path id="Vector_8" d="M35.2321 41.8831C38.5543 41.8831 41.2474 39.1485 41.2474 35.7752C41.2474 32.4018 38.5543 29.6672 35.2321 29.6672C31.9099 29.6672 29.2168 32.4018 29.2168 35.7752C29.2168 39.1485 31.9099 41.8831 35.2321 41.8831Z" fill="#EC1220"/>
<path id="Vector_9" d="M35.2321 12.2159C38.5543 12.2159 41.2474 9.48125 41.2474 6.10793C41.2474 2.73461 38.5543 0 35.2321 0C31.9099 0 29.2168 2.73461 29.2168 6.10793C29.2168 9.48125 31.9099 12.2159 35.2321 12.2159Z" fill="#323232"/>
<path id="Vector_10" d="M49.1875 16.4497H53.1401V27.2741H55.8383V16.4497H59.7909V14.1646H49.1875V16.4497Z" fill="#EC1220"/>
<path id="Vector_11" d="M61.1478 30.9419C63.1461 30.9419 64.2116 29.9114 64.7537 28.3367L68.5172 17.4547L65.6741 17.4419L63.6504 24.6624H63.5497L61.5449 17.4419H58.7207L62.1942 27.5558L62.0366 27.9718C61.6585 28.8615 61.009 28.9256 60.0635 28.6248L59.4583 30.6667C59.8428 30.8267 60.4669 30.9419 61.1478 30.9419Z" fill="#EC1220"/>
<path id="Vector_12" d="M69.0039 27.2741H71.6894V23.7855H72.6917L75.081 27.2741H78.2709L74.81 22.3196L78.2331 17.4419H75.081L72.446 21.257H71.6894V17.4419H69.0039V27.2741Z" fill="#EC1220"/>
<path id="Vector_13" d="M84.222 20.8091H78.334V22.9726H84.222V20.8091Z" fill="#EC1220"/>
<path id="Vector_14" d="M84.6611 16.4497H88.6139V27.2741H91.312V16.4497H95.2646V14.1646H84.6611V16.4497Z" fill="#EC1220"/>
<path id="Vector_15" d="M96.6214 30.9419C98.6199 30.9419 99.6852 29.9114 100.227 28.3367L103.991 17.4547L101.148 17.4419L99.1242 24.6624H99.0233L97.0186 17.4419H94.1943L97.6679 27.5558L97.5103 27.9718C97.1321 28.8615 96.4828 28.9256 95.5371 28.6248L94.9319 30.6667C95.3165 30.8267 95.9407 30.9419 96.6214 30.9419Z" fill="#EC1220"/>
<path id="Vector_16" d="M104.478 27.2741H107.163V23.7855H108.165L110.555 27.2741H113.745L110.284 22.3196L113.707 17.4419H110.555L107.92 21.257H107.163V17.4419H104.478V27.2741Z" fill="#EC1220"/>
</g>
<defs>
<clipPath id="clip0_77_578">
<rect width="114" height="42" fill="white"/>
</clipPath>
</defs>
</svg>
