<svg width="44" height="44" viewBox="0 0 44 44" fill="none" xmlns="http://www.w3.org/2000/svg">
<g id="mingcute:notification-line">
<g id="Group">
<path id="Vector" fill-rule="evenodd" clip-rule="evenodd" d="M9.16658 16.5003C9.16658 13.0967 10.5187 9.8325 12.9254 7.42579C15.3321 5.01907 18.5963 3.66699 21.9999 3.66699C25.4035 3.66699 28.6677 5.01907 31.0744 7.42579C33.4812 9.8325 34.8332 13.0967 34.8332 16.5003V23.401L38.1736 30.0817C38.3274 30.3891 38.4 30.7308 38.3845 31.0743C38.3691 31.4177 38.2661 31.7515 38.0853 32.044C37.9046 32.3364 37.6521 32.5778 37.3518 32.7452C37.0515 32.9125 36.7134 33.0004 36.3696 33.0003H29.1022C28.6944 34.5738 27.7757 35.9672 26.4902 36.962C25.2048 37.9568 23.6253 38.4966 21.9999 38.4966C20.3745 38.4966 18.7951 37.9568 17.5096 36.962C16.2241 35.9672 15.3054 34.5738 14.8976 33.0003H7.63025C7.28646 33.0004 6.94836 32.9125 6.64807 32.7452C6.34778 32.5778 6.09527 32.3364 5.91451 32.044C5.73376 31.7515 5.63077 31.4177 5.61532 31.0743C5.59987 30.7308 5.67248 30.3891 5.82625 30.0817L9.16658 23.401V16.5003ZM18.8246 33.0003C19.1464 33.5577 19.6093 34.0205 20.1667 34.3423C20.724 34.6641 21.3563 34.8335 21.9999 34.8335C22.6435 34.8335 23.2758 34.6641 23.8332 34.3423C24.3906 34.0205 24.8534 33.5577 25.1752 33.0003H18.8246ZM21.9999 7.33366C19.5688 7.33366 17.2372 8.29943 15.5181 10.0185C13.799 11.7376 12.8332 14.0692 12.8332 16.5003V23.401C12.8332 23.9699 12.7008 24.5311 12.4464 25.04L10.3014 29.3337H33.7002L31.5552 25.04C31.3003 24.5312 31.1672 23.9701 31.1666 23.401V16.5003C31.1666 14.0692 30.2008 11.7376 28.4817 10.0185C26.7626 8.29943 24.4311 7.33366 21.9999 7.33366Z" fill="#323232"/>
</g>
</g>
</svg>
