<svg width="23" height="23" viewBox="0 0 23 23" fill="none" xmlns="http://www.w3.org/2000/svg">
<g id="Group">
<path id="Vector" d="M6.33268 1.5C6.91602 1.5 9.24935 6.75 9.24935 7.33333C9.24935 8.5 7.49935 9.66667 6.91602 10.8333C6.33268 12 7.49935 13.1667 8.66602 14.3333C9.12102 14.7883 10.9993 16.6667 12.166 16.0833C13.3327 15.5 14.4993 13.75 15.666 13.75C16.2493 13.75 21.4994 16.0833 21.4994 16.6667C21.4994 19 19.7494 20.75 17.9994 21.3333C16.2493 21.9167 15.0827 21.9167 12.7493 21.3333C10.416 20.75 8.66602 20.1667 5.74935 17.25C2.83268 14.3333 2.24935 12.5833 1.66602 10.25C1.08268 7.91667 1.08268 6.75 1.66602 5C2.24935 3.25 3.99935 1.5 6.33268 1.5Z" stroke="#EC1220" stroke-width="2" stroke-linecap="round" stroke-linejoin="round"/>
<path id="Vector_2" d="M13.332 6.21338C14.102 6.57505 14.802 7.06505 15.3854 7.66005C15.957 8.23171 16.4354 8.92005 16.7854 9.66671" stroke="#EC1220" stroke-width="2" stroke-linecap="round" stroke-linejoin="round"/>
<path id="Vector_3" d="M14.5 1.79175C16.145 2.22341 17.615 3.07508 18.7817 4.24175C19.9367 5.40841 20.7883 6.86675 21.2083 8.50008" stroke="#EC1220" stroke-width="2" stroke-linecap="round" stroke-linejoin="round"/>
</g>
</svg>
