<svg width="16" height="17" viewBox="0 0 16 17" fill="none" xmlns="http://www.w3.org/2000/svg">
<g id="solar:phone-calling-linear">
<g id="Group">
<path id="Vector" d="M9 1.83331C9 1.83331 10.556 1.97465 12.5353 3.95465C14.5153 5.93465 14.6567 7.48998 14.6567 7.48998M9.47133 4.19065C9.47133 4.19065 10.1313 4.37865 11.1213 5.36865C12.1113 6.35865 12.3 7.01865 12.3 7.01865" stroke="#868686" stroke-width="1.5" stroke-linecap="round"/>
<path id="Vector_2" d="M10.3707 10.198L10.7333 10.5426L10.3707 10.1986V10.198ZM12.668 14.0026L12.3047 13.658L12.6673 14.0026H12.668ZM11.784 14.476L11.8333 14.9726L11.784 14.4753V14.476ZM10.43 10.862L10.7333 10.542L10.008 9.85331L9.70466 10.174L10.43 10.862ZM11.7327 10.4073L13.006 11.1413L13.5047 10.274L12.2313 9.54064L11.7327 10.4073ZM13.252 12.6606L12.3053 13.6573L13.03 14.3466L13.9767 13.35L13.252 12.6606ZM11.7353 13.9773C10.7787 14.0713 8.282 13.9913 5.57266 11.1393L4.848 11.8273C7.80066 14.936 10.6173 15.0933 11.8333 14.9726L11.7353 13.9773ZM5.57266 11.1393C2.98866 8.41864 2.55533 6.12331 2.50133 5.11664L1.50266 5.17064C1.56933 6.40398 2.092 8.92598 4.848 11.8273L5.57266 11.1393ZM6.49 6.71398L6.68066 6.51264L5.956 5.82398L5.76466 6.02531L6.49 6.71398ZM6.83133 4.00598L5.99066 2.81798L5.174 3.39531L6.014 4.58398L6.83133 4.00664V4.00598ZM3.14466 2.56064L2.09933 3.66331L2.82466 4.35198L3.87133 3.24998L3.146 2.56131L3.14466 2.56064ZM6.12733 6.36931C6.00734 6.25368 5.88623 6.13923 5.764 6.02598L5.76266 6.02731L5.76066 6.02931C5.74896 6.04168 5.73783 6.05458 5.72733 6.06798C5.66198 6.15448 5.61027 6.25048 5.574 6.35264C5.50866 6.53598 5.474 6.77864 5.518 7.08131C5.60466 7.67598 5.99466 8.47531 7.01266 9.54798L7.738 8.85864C6.786 7.85664 6.55133 7.23998 6.50733 6.93598C6.486 6.78931 6.50733 6.71264 6.516 6.68798L6.52133 6.67531C6.51589 6.6841 6.50964 6.69235 6.50266 6.69998C6.49875 6.7045 6.49475 6.70894 6.49066 6.71331C6.49066 6.71331 6.48933 6.71331 6.12733 6.36931ZM7.01266 9.54798C8.028 10.6173 8.79466 11.0366 9.37933 11.132C9.68 11.1806 9.92333 11.1413 10.1073 11.0686C10.2093 11.0286 10.3041 10.9723 10.388 10.902C10.3962 10.8946 10.4042 10.8871 10.412 10.8793L10.4213 10.87C10.4229 10.8687 10.4245 10.8673 10.426 10.866L10.428 10.864L10.4287 10.8626C10.4287 10.8626 10.43 10.862 10.0673 10.5173C9.70466 10.1733 9.70533 10.172 9.70533 10.172L9.70666 10.1713L9.708 10.1693C9.70912 10.1682 9.71023 10.1671 9.71133 10.166L9.718 10.1593C9.72582 10.1518 9.73406 10.1446 9.74266 10.138C9.74933 10.134 9.74866 10.1353 9.74 10.1386C9.72666 10.144 9.66666 10.1653 9.54 10.1446C9.272 10.1006 8.69333 9.86464 7.738 8.85864L7.01266 9.54798ZM5.99066 2.81798C5.31466 1.86198 3.96333 1.69998 3.146 2.56131L3.86933 3.24998C4.218 2.88331 4.83266 2.91198 5.174 3.39531L5.99066 2.81798ZM2.50133 5.11664C2.48666 4.84998 2.60333 4.58398 2.82466 4.35198L2.09933 3.66331C1.742 4.03931 1.47 4.56131 1.50266 5.17064L2.50133 5.11664ZM12.3047 13.658C12.1187 13.854 11.9247 13.9586 11.7353 13.9773L11.8333 14.9726C12.3313 14.924 12.7347 14.658 13.03 14.3466L12.3047 13.6586V13.658ZM6.68066 6.51331C7.326 5.83398 7.37133 4.77131 6.83133 4.00664L6.01466 4.58398C6.296 4.98198 6.25266 5.51198 5.956 5.82398L6.68066 6.51331ZM13.006 11.1413C13.5533 11.4566 13.6607 12.2313 13.252 12.6613L13.9767 13.35C14.8467 12.434 14.5933 10.9013 13.5053 10.2746L13.006 11.1413ZM10.7333 10.5426C10.99 10.272 11.3907 10.2113 11.7327 10.408L12.2313 9.54131C11.4987 9.11998 10.5913 9.24131 10.008 9.85464L10.7333 10.5426Z" fill="#868686"/>
</g>
</g>
</svg>
