<svg width="49" height="48" viewBox="0 0 49 48" fill="none" xmlns="http://www.w3.org/2000/svg">
<g id="iconoir:delivery-truck">
<g id="Group">
<path id="Vector" d="M16.5 38C17.5609 38 18.5783 37.5786 19.3284 36.8284C20.0786 36.0783 20.5 35.0609 20.5 34C20.5 32.9391 20.0786 31.9217 19.3284 31.1716C18.5783 30.4214 17.5609 30 16.5 30C15.4391 30 14.4217 30.4214 13.6716 31.1716C12.9214 31.9217 12.5 32.9391 12.5 34C12.5 35.0609 12.9214 36.0783 13.6716 36.8284C14.4217 37.5786 15.4391 38 16.5 38ZM36.5 38C37.5609 38 38.5783 37.5786 39.3284 36.8284C40.0786 36.0783 40.5 35.0609 40.5 34C40.5 32.9391 40.0786 31.9217 39.3284 31.1716C38.5783 30.4214 37.5609 30 36.5 30C35.4391 30 34.4217 30.4214 33.6716 31.1716C32.9214 31.9217 32.5 32.9391 32.5 34C32.5 35.0609 32.9214 36.0783 33.6716 36.8284C34.4217 37.5786 35.4391 38 36.5 38Z" stroke="#EC1220" stroke-width="3" stroke-miterlimit="1.5" stroke-linecap="round" stroke-linejoin="round"/>
<path id="Vector_2" d="M20.6 34H30.5V13.2C30.5 12.8817 30.3736 12.5765 30.1485 12.3515C29.9235 12.1264 29.6183 12 29.3 12H2.5M11.8 34H7.7C7.54241 34 7.38637 33.969 7.24078 33.9087C7.09519 33.8484 6.9629 33.76 6.85147 33.6485C6.74004 33.5371 6.65165 33.4048 6.59134 33.2592C6.53104 33.1136 6.5 32.9576 6.5 32.8V23" stroke="#EC1220" stroke-width="3" stroke-linecap="round"/>
<path id="Vector_3" d="M4.5 18H12.5" stroke="#EC1220" stroke-width="3" stroke-linecap="round" stroke-linejoin="round"/>
<path id="Vector_4" d="M30.5 18H41.72C41.952 18.0001 42.1789 18.0673 42.3734 18.1937C42.5679 18.3201 42.7217 18.5001 42.816 18.712L46.396 26.768C46.4642 26.921 46.4996 27.0865 46.5 27.254V32.8C46.5 32.9576 46.469 33.1136 46.4087 33.2592C46.3484 33.4048 46.26 33.5371 46.1485 33.6485C46.0371 33.76 45.9048 33.8484 45.7592 33.9087C45.6136 33.969 45.4576 34 45.3 34H41.5M30.5 34H32.5" stroke="#EC1220" stroke-width="3" stroke-linecap="round"/>
</g>
</g>
</svg>
