<svg width="49" height="48" viewBox="0 0 49 48" fill="none" xmlns="http://www.w3.org/2000/svg">
<g id="solar:phone-calling-linear">
<g id="Group">
<path id="Vector" d="M26.5 4C26.5 4 31.1763 4.42475 37.1247 10.3753C43.0752 16.3258 43.5 21 43.5 21M27.9165 11.0845C27.9165 11.0845 29.9 11.6495 32.8752 14.6248C35.8505 17.6 36.4175 19.5835 36.4175 19.5835" stroke="#EC1220" stroke-width="1.5" stroke-linecap="round"/>
<path id="Vector_2" d="M31.1117 28.5966L32.1996 29.6306L31.1117 28.5986V28.5966ZM38.0036 40.0106L36.9136 38.9766L38.0016 40.0106H38.0036ZM35.3516 41.4306L35.4996 42.9206L35.3516 41.4286V41.4306ZM31.2897 30.5886L32.1996 29.6286L30.0237 27.5626L29.1137 28.5246L31.2897 30.5886ZM35.1976 29.2246L39.0176 31.4266L40.5135 28.8246L36.6936 26.6246L35.1976 29.2246ZM39.7555 35.9846L36.9156 38.9746L39.0896 41.0426L41.9295 38.0526L39.7555 35.9846ZM35.2056 39.9346C32.3356 40.2166 24.8457 39.9766 16.7178 31.4206L14.5439 33.4846C23.4018 42.8106 31.8516 43.2826 35.4996 42.9206L35.2056 39.9346ZM16.7178 31.4206C8.96594 23.2585 7.66596 16.3725 7.50396 13.3525L4.508 13.5145C4.708 17.2145 6.27598 24.7805 14.5439 33.4846L16.7178 31.4206ZM19.4698 18.1445L20.0418 17.5405L17.8678 15.4745L17.2938 16.0785L19.4698 18.1445ZM20.4938 10.0205L17.9718 6.4565L15.5219 8.18851L18.0418 11.7545L20.4938 10.0225V10.0205ZM9.43394 5.6845L6.29798 8.99251L8.47395 11.0585L11.6139 7.75251L9.43794 5.6865L9.43394 5.6845ZM18.3818 17.1105C18.0219 16.7636 17.6585 16.4203 17.2918 16.0805L17.2878 16.0845L17.2818 16.0905C17.2467 16.1276 17.2133 16.1663 17.1818 16.2065C16.9858 16.466 16.8307 16.754 16.7218 17.0605C16.5258 17.6105 16.4218 18.3385 16.5538 19.2465C16.8138 21.0305 17.9838 23.4285 21.0378 26.6466L23.2138 24.5785C20.3578 21.5725 19.6538 19.7225 19.5218 18.8105C19.4578 18.3705 19.5218 18.1405 19.5478 18.0665L19.5638 18.0285C19.5475 18.0549 19.5287 18.0797 19.5078 18.1025C19.4961 18.1161 19.4841 18.1294 19.4718 18.1425C19.4718 18.1425 19.4678 18.1425 18.3818 17.1105ZM21.0378 26.6466C24.0837 29.8546 26.3837 31.1126 28.1377 31.3986C29.0397 31.5446 29.7697 31.4266 30.3217 31.2086C30.6275 31.0885 30.9119 30.9196 31.1637 30.7086C31.1883 30.6865 31.2123 30.6639 31.2357 30.6406L31.2637 30.6126C31.2684 30.6086 31.273 30.6046 31.2777 30.6006L31.2837 30.5946L31.2857 30.5906C31.2857 30.5906 31.2896 30.5886 30.2017 29.5546C29.1137 28.5226 29.1157 28.5206 29.1157 28.5186L29.1197 28.5166L29.1237 28.5106C29.1271 28.5073 29.1304 28.5039 29.1337 28.5006L29.1537 28.4806C29.1772 28.4579 29.2019 28.4365 29.2277 28.4166C29.2477 28.4046 29.2457 28.4086 29.2197 28.4186C29.1797 28.4346 28.9997 28.4986 28.6197 28.4366C27.8157 28.3046 26.0797 27.5966 23.2138 24.5785L21.0378 26.6466ZM17.9718 6.4565C15.9439 3.5885 11.8899 3.10249 9.43794 5.6865L11.6079 7.75251C12.6539 6.6525 14.4979 6.7385 15.5219 8.18851L17.9718 6.4565ZM7.50396 13.3525C7.45996 12.5525 7.80996 11.7545 8.47395 11.0585L6.29798 8.99251C5.22599 10.1205 4.41 11.6865 4.508 13.5145L7.50396 13.3525ZM36.9136 38.9766C36.3556 39.5646 35.7736 39.8786 35.2056 39.9346L35.4996 42.9206C36.9936 42.7746 38.2036 41.9766 39.0896 41.0426L36.9136 38.9786V38.9766ZM20.0418 17.5425C21.9778 15.5045 22.1138 12.3165 20.4938 10.0225L18.0438 11.7545C18.8878 12.9485 18.7578 14.5385 17.8678 15.4745L20.0418 17.5425ZM39.0176 31.4266C40.6595 32.3726 40.9815 34.6966 39.7555 35.9866L41.9295 38.0526C44.5395 35.3046 43.7795 30.7066 40.5155 28.8266L39.0176 31.4266ZM32.1996 29.6306C32.9696 28.8186 34.1716 28.6366 35.1976 29.2266L36.6936 26.6266C34.4956 25.3626 31.7736 25.7266 30.0237 27.5666L32.1996 29.6306Z" fill="#EC1220"/>
</g>
</g>
</svg>
