<svg width="49" height="48" viewBox="0 0 49 48" fill="none" xmlns="http://www.w3.org/2000/svg">
<g id="solar:calendar-outline">
<g id="Group">
<path id="Vector" d="M34.5 29C35.0304 29 35.5391 28.7893 35.9142 28.4142C36.2893 28.0391 36.5 27.5304 36.5 27C36.5 26.4696 36.2893 25.9609 35.9142 25.5858C35.5391 25.2107 35.0304 25 34.5 25C33.9696 25 33.4609 25.2107 33.0858 25.5858C32.7107 25.9609 32.5 26.4696 32.5 27C32.5 27.5304 32.7107 28.0391 33.0858 28.4142C33.4609 28.7893 33.9696 29 34.5 29ZM34.5 37C35.0304 37 35.5391 36.7893 35.9142 36.4142C36.2893 36.0391 36.5 35.5304 36.5 35C36.5 34.4696 36.2893 33.9609 35.9142 33.5858C35.5391 33.2107 35.0304 33 34.5 33C33.9696 33 33.4609 33.2107 33.0858 33.5858C32.7107 33.9609 32.5 34.4696 32.5 35C32.5 35.5304 32.7107 36.0391 33.0858 36.4142C33.4609 36.7893 33.9696 37 34.5 37ZM26.5 27C26.5 27.5304 26.2893 28.0391 25.9142 28.4142C25.5391 28.7893 25.0304 29 24.5 29C23.9696 29 23.4609 28.7893 23.0858 28.4142C22.7107 28.0391 22.5 27.5304 22.5 27C22.5 26.4696 22.7107 25.9609 23.0858 25.5858C23.4609 25.2107 23.9696 25 24.5 25C25.0304 25 25.5391 25.2107 25.9142 25.5858C26.2893 25.9609 26.5 26.4696 26.5 27ZM26.5 35C26.5 35.5304 26.2893 36.0391 25.9142 36.4142C25.5391 36.7893 25.0304 37 24.5 37C23.9696 37 23.4609 36.7893 23.0858 36.4142C22.7107 36.0391 22.5 35.5304 22.5 35C22.5 34.4696 22.7107 33.9609 23.0858 33.5858C23.4609 33.2107 23.9696 33 24.5 33C25.0304 33 25.5391 33.2107 25.9142 33.5858C26.2893 33.9609 26.5 34.4696 26.5 35ZM14.5 29C15.0304 29 15.5391 28.7893 15.9142 28.4142C16.2893 28.0391 16.5 27.5304 16.5 27C16.5 26.4696 16.2893 25.9609 15.9142 25.5858C15.5391 25.2107 15.0304 25 14.5 25C13.9696 25 13.4609 25.2107 13.0858 25.5858C12.7107 25.9609 12.5 26.4696 12.5 27C12.5 27.5304 12.7107 28.0391 13.0858 28.4142C13.4609 28.7893 13.9696 29 14.5 29ZM14.5 37C15.0304 37 15.5391 36.7893 15.9142 36.4142C16.2893 36.0391 16.5 35.5304 16.5 35C16.5 34.4696 16.2893 33.9609 15.9142 33.5858C15.5391 33.2107 15.0304 33 14.5 33C13.9696 33 13.4609 33.2107 13.0858 33.5858C12.7107 33.9609 12.5 34.4696 12.5 35C12.5 35.5304 12.7107 36.0391 13.0858 36.4142C13.4609 36.7893 13.9696 37 14.5 37Z" fill="#EC1220"/>
<path id="Vector_2" fill-rule="evenodd" clip-rule="evenodd" d="M14 4C14.3978 4 14.7794 4.15804 15.0607 4.43934C15.342 4.72064 15.5 5.10218 15.5 5.5V7.026C16.824 7 18.282 7 19.886 7H28.112C29.718 7 31.176 7 32.5 7.026V5.5C32.5 5.10218 32.658 4.72064 32.9393 4.43934C33.2206 4.15804 33.6022 4 34 4C34.3978 4 34.7794 4.15804 35.0607 4.43934C35.342 4.72064 35.5 5.10218 35.5 5.5V7.154C36.02 7.194 36.512 7.244 36.978 7.306C39.322 7.622 41.22 8.286 42.718 9.782C44.214 11.28 44.878 13.178 45.194 15.522C45.5 17.802 45.5 20.712 45.5 24.388V28.612C45.5 32.288 45.5 35.2 45.194 37.478C44.878 39.822 44.214 41.72 42.718 43.218C41.22 44.714 39.322 45.378 36.978 45.694C34.698 46 31.788 46 28.112 46H19.888C16.212 46 13.3 46 11.022 45.694C8.678 45.378 6.78 44.714 5.282 43.218C3.786 41.72 3.122 39.822 2.806 37.478C2.5 35.198 2.5 32.288 2.5 28.612V24.388C2.5 20.712 2.5 17.8 2.806 15.522C3.122 13.178 3.786 11.28 5.282 9.782C6.78 8.286 8.678 7.622 11.022 7.306C11.488 7.244 11.982 7.194 12.5 7.154V5.5C12.5 5.10218 12.658 4.72064 12.9393 4.43934C13.2206 4.15804 13.6022 4 14 4ZM11.42 10.28C9.41 10.55 8.25 11.058 7.404 11.904C6.558 12.75 6.05 13.91 5.78 15.922C5.734 16.262 5.696 16.622 5.664 17H42.336C42.304 16.62 42.266 16.262 42.22 15.92C41.95 13.91 41.442 12.75 40.596 11.904C39.75 11.058 38.59 10.55 36.578 10.28C34.524 10.004 31.814 10 28 10H20C16.186 10 13.478 10.004 11.42 10.28ZM5.5 24.5C5.5 22.792 5.5 21.306 5.526 20H42.474C42.5 21.306 42.5 22.792 42.5 24.5V28.5C42.5 32.314 42.496 35.024 42.22 37.08C41.95 39.09 41.442 40.25 40.596 41.096C39.75 41.942 38.59 42.45 36.578 42.72C34.524 42.996 31.814 43 28 43H20C16.186 43 13.478 42.996 11.42 42.72C9.41 42.45 8.25 41.942 7.404 41.096C6.558 40.25 6.05 39.09 5.78 37.078C5.504 35.024 5.5 32.314 5.5 28.5V24.5Z" fill="#EC1220"/>
</g>
</g>
</svg>
