<svg width="40" height="40" viewBox="0 0 40 40" fill="none" xmlns="http://www.w3.org/2000/svg">
<g id="tabler:trash">
<path id="Vector" d="M6.66602 11.6667H33.3327M16.666 18.3333V28.3333M23.3327 18.3333V28.3333M8.33268 11.6667L9.99935 31.6667C9.99935 32.5507 10.3505 33.3986 10.9757 34.0237C11.6008 34.6488 12.4486 35 13.3327 35H26.666C27.5501 35 28.3979 34.6488 29.023 34.0237C29.6482 33.3986 29.9993 32.5507 29.9993 31.6667L31.666 11.6667M14.9993 11.6667V6.66667C14.9993 6.22464 15.1749 5.80072 15.4875 5.48816C15.8001 5.17559 16.224 5 16.666 5H23.3327C23.7747 5 24.1986 5.17559 24.5112 5.48816C24.8238 5.80072 24.9993 6.22464 24.9993 6.66667V11.6667" stroke="#868686" stroke-width="2.5" stroke-linecap="round" stroke-linejoin="round"/>
</g>
</svg>
