<svg width="92" height="36" viewBox="0 0 92 36" fill="none" xmlns="http://www.w3.org/2000/svg">
    <circle cx="4.81654" cy="4.81654" r="4.81654" fill="white"></circle>
    <circle cx="16.5138" cy="4.81654" r="4.81654" fill="white"></circle>
    <circle cx="16.5138" cy="16.5141" r="4.81654" fill="white"></circle>
    <circle cx="16.5138" cy="28.2113" r="4.81654" fill="white"></circle>
    <circle cx="4.81654" cy="28.2113" r="4.81654" fill="#EC1220"></circle>
    <circle cx="4.81654" cy="16.5141" r="4.81654" fill="#EC1220"></circle>
    <circle cx="28.2112" cy="16.5141" r="4.81654" fill="#EC1220"></circle>
    <circle cx="28.2112" cy="28.2113" r="4.81654" fill="#EC1220"></circle>
    <circle cx="28.2112" cy="4.81654" r="4.81654" fill="white"></circle>
    <path d="M39.3855 24.4917H42.5504V33.0275H44.7109V24.4917H47.8758V22.6897H39.3855V24.4917Z" fill="#EC1220"></path>
    <path d="M48.9621 35.9198C50.5622 35.9198 51.4153 35.1072 51.8494 33.8654L54.8629 25.2842L52.5864 25.2741L50.966 30.968H50.8853L49.2801 25.2741H47.0187L49.8 33.2496L49.6738 33.5777C49.371 34.2793 48.851 34.3298 48.0939 34.0926L47.6093 35.7028C47.9172 35.829 48.4169 35.9198 48.9621 35.9198Z" fill="#EC1220"></path>
    <path d="M55.2526 33.0275H57.4029V30.2765H58.2055L60.1186 33.0275H62.6728L59.9016 29.1205L62.6425 25.2741H60.1186L58.0087 28.2826H57.4029V25.2741H55.2526V33.0275Z" fill="#EC1220"></path>
    <path d="M67.4376 27.9293H62.723V29.6354H67.4376V27.9293Z" fill="#EC1220"></path>
    <path d="M67.7894 24.4917H70.9544V33.0275H73.1148V24.4917H76.2797V22.6897H67.7894V24.4917Z" fill="#EC1220"></path>
    <path d="M77.366 35.9198C78.9662 35.9198 79.8192 35.1072 80.2533 33.8654L83.2668 25.2842L80.9903 25.2741L79.37 30.968H79.2892L77.684 25.2741H75.4226L78.2039 33.2496L78.0777 33.5777C77.7749 34.2793 77.255 34.3298 76.4978 34.0926L76.0132 35.7028C76.3211 35.829 76.8209 35.9198 77.366 35.9198Z" fill="#EC1220"></path>
    <path d="M83.6565 33.0275H85.8069V30.2765H86.6095L88.5226 33.0275H91.0767L88.3055 29.1205L91.0464 25.2741H88.5226L86.4126 28.2826H85.8069V25.2741H83.6565V33.0275Z" fill="#EC1220"></path>
    <path d="M46.5496 20.1494H45.1925V18.3954H40.8909V20.1445H39.4995L39.4211 17.2147H39.9601C40.2508 16.973 40.4745 16.6186 40.6313 16.1515C40.7913 15.6812 40.8991 15.0998 40.9546 14.4074L41.1604 11.262H45.8343V17.2147H46.6672L46.5496 20.1494ZM41.6454 17.2147H44.3645V12.4526H42.5567L42.4342 14.329C42.3362 15.5865 42.0733 16.5484 41.6454 17.2147Z" fill="white"></path>
    <path d="M53.0829 14.9904C53.0829 15.6926 52.9588 16.3083 52.7106 16.8374C52.4623 17.3666 52.1063 17.7748 51.6425 18.0623C51.182 18.3497 50.6529 18.4934 50.0551 18.4934C49.464 18.4934 48.9365 18.3513 48.4727 18.0672C48.0089 17.783 47.6496 17.378 47.3948 16.8521C47.1401 16.323 47.011 15.7155 47.0078 15.0296V14.6768C47.0078 13.9746 47.1335 13.3573 47.385 12.8249C47.6398 12.2893 47.9974 11.8794 48.458 11.5952C48.9218 11.3078 49.4509 11.1641 50.0453 11.1641C50.6398 11.1641 51.1673 11.3078 51.6278 11.5952C52.0916 11.8794 52.4493 12.2893 52.7008 12.8249C52.9555 13.3573 53.0829 13.973 53.0829 14.672V14.9904ZM51.5935 14.6671C51.5935 13.9191 51.4596 13.3508 51.1918 12.9621C50.9239 12.5734 50.5418 12.3791 50.0453 12.3791C49.5521 12.3791 49.1716 12.5718 48.9038 12.9572C48.636 13.3393 48.5004 13.9011 48.4972 14.6426V14.9904C48.4972 15.7188 48.6311 16.2838 48.8989 16.6856C49.1667 17.0873 49.5521 17.2882 50.0551 17.2882C50.5483 17.2882 50.9272 17.0955 51.1918 16.7101C51.4563 16.3214 51.5902 15.7563 51.5935 15.0149V14.6671Z" fill="white"></path>
    <path d="M59.6505 16.0193C59.595 16.7868 59.3108 17.3911 58.798 17.832C58.2885 18.2729 57.6156 18.4934 56.7795 18.4934C55.865 18.4934 55.1448 18.1864 54.6189 17.5723C54.0963 16.955 53.835 16.1091 53.835 15.0345V14.5985C53.835 13.9126 53.9559 13.3083 54.1976 12.7857C54.4393 12.2631 54.7839 11.863 55.2313 11.5854C55.6821 11.3045 56.2047 11.1641 56.7991 11.1641C57.6222 11.1641 58.2852 11.3845 58.7882 11.8255C59.2912 12.2664 59.5819 12.8853 59.6603 13.6823H58.1905C58.1546 13.2218 58.0256 12.8886 57.8035 12.6828C57.5846 12.4738 57.2498 12.3693 56.7991 12.3693C56.3092 12.3693 55.9417 12.5457 55.6968 12.8984C55.4551 13.2479 55.3309 13.7917 55.3244 14.5299V15.0688C55.3244 15.8396 55.4404 16.403 55.6723 16.759C55.9074 17.1151 56.2765 17.2931 56.7795 17.2931C57.2335 17.2931 57.5716 17.1902 57.7937 16.9844C58.019 16.7754 58.148 16.4537 58.1807 16.0193H59.6505Z" fill="white"></path>
    <path d="M65.7379 12.4526H63.5529V18.3954H62.0831V12.4526H59.9274V11.262H65.7379V12.4526Z" fill="white"></path>
    <path d="M69.9196 16.9256H67.3426L66.8526 18.3954H65.2898L67.9452 11.262H69.3072L71.9773 18.3954H70.4144L69.9196 16.9256ZM67.7394 15.7351H69.5227L68.6262 13.065L67.7394 15.7351Z" fill="white"></path>
    <path d="M72.5432 18.3954V11.262H75.0419C75.9074 11.262 76.5639 11.4286 77.0114 11.7618C77.4589 12.0917 77.6826 12.5767 77.6826 13.2169C77.6826 13.5663 77.5928 13.875 77.4131 14.1428C77.2335 14.4074 76.9836 14.6017 76.6635 14.7258C77.0294 14.8173 77.3168 15.0018 77.5258 15.2795C77.7381 15.5571 77.8443 15.8968 77.8443 16.2985C77.8443 16.9844 77.6254 17.5037 77.1878 17.8565C76.7501 18.2092 76.1263 18.3889 75.3162 18.3954H72.5432ZM74.013 15.2893V17.2147H75.2721C75.6184 17.2147 75.8878 17.133 76.0805 16.9697C76.2765 16.8031 76.3745 16.5745 76.3745 16.2838C76.3745 15.6306 76.0364 15.2991 75.3603 15.2893H74.013ZM74.013 14.2506H75.1007C75.8421 14.2375 76.2128 13.942 76.2128 13.3638C76.2128 13.0405 76.1181 12.8086 75.9287 12.6681C75.7425 12.5244 75.4469 12.4526 75.0419 12.4526H74.013V14.2506Z" fill="white"></path>
    <path d="M81.1783 15.4803H80.3308V18.3954H78.861V11.262H80.3308V14.1183H81.002L82.7461 11.262H84.5392L82.3395 14.6377L84.7695 18.3954H83.0156L81.1783 15.4803Z" fill="white"></path>
    <path d="M89.5146 11.262H90.9892V18.3954H89.5146V13.6578L86.6583 18.3954H85.1885V11.262H86.6583V16.0095L89.5146 11.262Z" fill="white"></path>
    <path d="M46.4611 5.81196C46.3927 6.73077 46.0427 7.45409 45.4112 7.98191C44.7837 8.50974 43.955 8.77365 42.9252 8.77365C41.7989 8.77365 40.9119 8.40613 40.2643 7.67108C39.6206 6.93212 39.2988 5.91948 39.2988 4.63315V4.11118C39.2988 3.29012 39.4477 2.5668 39.7453 1.94123C40.043 1.31566 40.4674 0.836703 41.0185 0.504368C41.5736 0.168123 42.2172 0 42.9493 0C43.963 0 44.7796 0.263913 45.3991 0.79174C46.0186 1.31957 46.3766 2.06048 46.4732 3.01448H44.663C44.6187 2.46319 44.4598 2.06439 44.1863 1.81807C43.9168 1.56784 43.5045 1.44273 42.9493 1.44273C42.346 1.44273 41.8934 1.65386 41.5917 2.07612C41.294 2.49447 41.1412 3.14546 41.1331 4.02908V4.6742C41.1331 5.59692 41.2759 6.27136 41.5615 6.69753C41.8512 7.12371 42.3057 7.33679 42.9252 7.33679C43.4844 7.33679 43.9007 7.21363 44.1742 6.96731C44.4518 6.71708 44.6107 6.33196 44.6509 5.81196H46.4611Z" fill="white"></path>
    <path d="M54.6703 0.117295V8.65636H52.8541V1.54243H50.513L50.3682 4.5569C50.3078 5.57346 50.1751 6.37497 49.9699 6.96145C49.7648 7.54401 49.4651 7.97214 49.0709 8.24583C48.6767 8.5156 48.1376 8.65245 47.4538 8.65636H46.9831V7.24295L47.2848 7.21363C47.7394 7.15498 48.0632 6.90085 48.2563 6.45121C48.4534 5.99767 48.5781 5.19225 48.6304 4.03494L48.7812 0.117295H54.6703Z" fill="white"></path>
    <path d="M59.4222 4.15224L61.0212 0.117295H62.9761L59.9049 7.16085L59.6575 7.62416C59.2029 8.3944 58.507 8.77952 57.5698 8.77952L56.9362 8.75606L56.9181 7.34266C57.0146 7.35829 57.1715 7.36611 57.3887 7.36611C57.6422 7.36611 57.8453 7.32311 57.9982 7.23709C58.155 7.15107 58.2858 6.99273 58.3904 6.76205L58.6136 6.2049L55.5303 0.117295H57.4792L59.4222 4.15224Z" fill="white"></path>
    <path d="M71.2216 5.17857H70.1777V8.65636H68.3676V5.17857H67.2996L65.3868 8.65636H63.1301L65.8695 4.07599L63.2629 0.117295H65.5135L67.4685 3.5599H68.3676V0.117295H70.1777V3.5599H71.0587L72.9654 0.117295H75.21L72.6516 4.07013L75.3488 8.65636H73.0861L71.2216 5.17857Z" fill="white"></path>
    <path d="M81.7539 1.54243H77.8319V3.19628H79.2438C80.2776 3.19628 81.0962 3.44065 81.6996 3.92938C82.307 4.4142 82.6107 5.06909 82.6107 5.89406C82.6107 6.72295 82.309 7.38957 81.7057 7.89394C81.1063 8.3944 80.3078 8.64854 79.3102 8.65636H76.0036V0.117295H81.7539V1.54243ZM77.8319 4.61555V7.24295H79.274C79.7366 7.24295 80.1047 7.1198 80.3782 6.87348C80.6558 6.62716 80.7945 6.29678 80.7945 5.88234C80.7945 5.49526 80.6618 5.1903 80.3963 4.96744C80.1348 4.74067 79.7748 4.62337 79.3162 4.61555H77.8319Z" fill="white"></path>
    <path d="M88.6055 6.89693H85.4317L84.8283 8.65636H82.9035L86.1739 0.117295H87.8513L91.1398 8.65636H89.215L88.6055 6.89693ZM85.9205 5.4718H88.1168L87.0126 2.27552L85.9205 5.4718Z" fill="white"></path>
</svg>